<svg width="1920" height="204" viewBox="0 0 1920 204" fill="none" xmlns="http://www.w3.org/2000/svg">
<path d="M1920 203.615H0V148.427C15.1197 144.295 39.5269 131.153 46.5596 126.172C74.8556 106.174 82.4644 77.3554 96.0244 53.0645C109.609 28.7592 148.153 4.11687 187.776 12.6729C217.848 19.1631 229.584 40.5678 243.672 58.0459C278.64 101.456 354.744 132.897 433.944 131.183C489.84 129.967 549.816 113.895 598.752 130.436C653.304 148.866 708.288 224.215 789.288 196.598C855.744 173.934 817.656 108.063 873.456 79.2451C910.656 60.0383 968.28 68.9459 1009.66 84.6367C1051.06 100.327 1088.33 122.201 1136.06 128.208C1212.34 137.789 1282.82 104.327 1345.85 76.4033C1408.87 48.4791 1495.56 24.0712 1560.62 50.1934C1601.52 66.6168 1622.04 99.6535 1667.81 110.231C1716.29 121.424 1769.78 101.675 1803.17 77.4873C1826.04 60.9174 1843.44 41.8423 1866.29 25.2871C1879.63 15.603 1896.7 2.34411 1920 0V203.615ZM183.984 91.4932C173.904 82.732 159.528 72.8727 142.392 75.1582C131.136 76.6527 123.313 83.3917 121.272 90.3066C119.232 97.2364 121.872 104.328 124.968 111.097C136.296 135.842 146.52 169.801 198.048 167.647C213.888 166.988 230.304 161.436 234.96 152.177C240.264 141.658 229.368 130.89 219 121.88C207.336 111.756 195.672 101.617 183.984 91.4932ZM1520.04 74.4844C1505.02 72.7556 1489.63 75.3921 1475.04 78.2197C1470.89 79.0255 1346.21 111.33 1381.32 125.248C1393.42 130.039 1409.71 126.89 1421.98 122.26C1434.26 117.631 1445.83 111.491 1460.11 110.246C1488.77 107.741 1516.37 125.82 1543.7 120.033C1556.47 117.337 1565.54 109.162 1564.92 100.913C1564.03 89.2371 1537.92 76.5208 1520.04 74.4844ZM921.441 96.3408C919.383 90.1264 909.394 87.8447 899.132 91.2441C888.87 94.6437 882.219 102.437 884.277 108.651C886.336 114.866 896.324 117.148 906.587 113.749C916.849 110.35 923.5 102.555 921.441 96.3408ZM183.923 36.543C174.876 33.262 165.93 35.0438 163.943 40.5225C161.957 46.0011 167.68 53.1019 176.728 56.3828C185.775 59.6638 194.719 57.882 196.706 52.4033C198.693 46.9248 192.97 39.824 183.923 36.543Z" fill="white"/>
</svg>
