<svg width="545" height="508" viewBox="0 0 545 508" fill="none" xmlns="http://www.w3.org/2000/svg">
<path d="M50.439 124.924C49.6635 122.379 48.8625 119.844 48.0091 117.332C33.1231 124.156 21.8135 130.654 15.1675 136.635C17.0302 138.512 18.9038 140.379 20.7907 142.234C26.422 137.082 36.5946 131.245 50.439 124.924Z" fill="#D18109"/>
<path d="M93.8954 107.634C93.167 105.035 92.3767 102.462 91.4977 99.9264C80.0981 104.028 69.5679 108.076 60.1157 112.036C60.9517 114.568 61.7393 117.119 62.5108 119.675C71.8232 115.799 82.3412 111.772 93.8954 107.634Z" fill="#D18109"/>
<path d="M135.816 93.5546C134.991 90.9768 134.133 88.4125 133.225 85.8683C123.044 89.1073 113.236 92.3383 103.938 95.5437C104.762 98.1134 105.502 100.709 106.201 103.32C115.523 100.116 125.436 96.854 135.816 93.5546Z" fill="#D18109"/>
<path d="M182.207 79.4898C181.476 76.8919 180.755 74.2899 180.051 71.6853C168.314 75.0869 156.867 78.5033 145.824 81.9184C146.693 84.476 147.523 87.0497 148.33 89.6302C159.175 86.2756 170.502 82.8887 182.207 79.4898Z" fill="#D18109"/>
<path d="M275.177 54.2579C274.632 51.6331 274.067 49.0137 273.472 46.4023C261.066 49.558 248.69 52.7768 236.445 56.04C236.941 58.6809 237.486 61.3138 238.076 63.9399C250.213 60.6942 262.609 57.4633 275.177 54.2579Z" fill="#D18109"/>
<path d="M369.33 31.589C368.859 28.9413 368.434 26.2829 368.05 23.6178C357.178 26.0974 346.129 28.6618 334.954 31.3107C335.52 33.9288 336.07 36.5496 336.602 39.1744C347.468 36.6007 358.394 34.0794 369.33 31.589Z" fill="#D18109"/>
<path d="M413.249 21.8531C413.046 19.1477 412.796 16.449 412.488 13.7597C402.305 15.9544 391.849 18.2513 381.151 20.653C381.534 23.3154 381.955 25.9698 382.426 28.6147C392.714 26.3071 402.991 24.0626 413.249 21.8531Z" fill="#D18109"/>
<path d="M429.435 18.3857L435.159 17.1775C442.079 15.7139 448.566 14.3443 454.676 13.128C454.454 10.4266 454.145 7.74673 453.706 5.09909C447.374 6.35437 440.658 7.77227 433.491 9.28828L427.774 10.4952C427.075 10.643 426.35 10.7989 425.647 10.9481C425.967 13.6334 426.228 16.3267 426.448 19.0268C427.44 18.8158 428.44 18.5954 429.435 18.3857Z" fill="#D18109"/>
<path d="M493.353 8.06389C495.164 8.06389 496.896 8.12436 498.56 8.24263C498.993 5.58424 499.4 2.92316 499.759 0.258046C497.704 0.0913926 495.575 0 493.353 0C485.31 0 476.394 1.04293 466.389 2.74172C466.776 5.4055 467.054 8.08405 467.265 10.7734C477.059 9.09607 485.709 8.06389 493.353 8.06389Z" fill="#D18109"/>
<path d="M524.388 19.5858C527.533 22.9996 529.909 26.8447 531.692 31.0594C534.238 30.2033 536.778 29.327 539.303 28.4131C537.176 23.1998 534.26 18.4018 530.317 14.1226C525.452 8.84205 519.717 5.11788 512.844 2.82101C512.452 5.51839 512.019 8.21038 511.567 10.8997C516.574 12.7853 520.755 15.6426 524.388 19.5858Z" fill="#D18109"/>
<path d="M535.743 75.2388C538.426 75.3718 541.106 75.5237 543.786 75.6931C544.628 63.5072 544.794 51.8777 542.944 41.3731C540.4 42.2911 537.837 43.166 535.271 44.0262C536.75 53.3574 536.548 63.8835 535.743 75.2388Z" fill="#D18109"/>
<path d="M8.77042 182.412C9.63998 170.727 11.2877 161.072 13.7176 153.945C11.6035 151.916 9.50554 149.863 7.42103 147.799C3.97371 156.077 1.87045 167.418 0.820801 180.681C3.46576 181.278 6.11606 181.856 8.77042 182.412Z" fill="#D18109"/>
<path d="M8.6227 225.616C8.09049 214.935 7.92111 204.976 8.13077 195.924C5.45625 195.384 2.78576 194.825 0.119296 194.244C-0.15622 204.434 0.0561676 215.408 0.646176 226.755C3.30323 226.361 5.96162 225.972 8.6227 225.616Z" fill="#D18109"/>
<path d="M11.0997 315.137C13.7044 314.455 16.3158 313.794 18.9298 313.152C18.0818 308.316 17.266 303.429 16.4878 298.488C15.6841 293.383 14.9422 288.347 14.2541 283.383C11.6159 283.9 8.97357 284.4 6.32861 284.869C7.02211 289.893 7.75457 294.862 8.52333 299.74C9.30822 304.74 10.171 309.89 11.0997 315.137Z" fill="#D18109"/>
<path d="M27.4857 355.31C25.3299 346.042 23.2777 336.376 21.3612 326.395C18.7565 327.041 16.1532 327.7 13.5566 328.386C15.4248 338.036 17.5066 347.879 19.7753 357.64C22.3329 356.823 24.9039 356.048 27.4857 355.31Z" fill="#D18109"/>
<path d="M74.2386 468.36C75.643 466.057 77.0623 463.765 78.5031 461.486C71.3329 457.815 65.9651 454.04 62.8027 450.233C61.9654 449.225 61.124 448.108 60.2773 446.894C57.9791 448.297 55.6849 449.71 53.3921 451.121C54.4511 452.656 55.521 454.086 56.6002 455.384C60.5139 460.097 66.7002 464.426 74.2386 468.36Z" fill="#D18109"/>
<path d="M113.978 474.829C105.402 472.318 97.5935 469.691 90.7594 466.976C89.285 469.285 87.8321 471.607 86.4048 473.946C94.3423 477.19 103.031 480.093 111.76 482.655C112.469 480.038 113.209 477.429 113.978 474.829Z" fill="#D18109"/>
<path d="M156.27 493.299C156.894 490.658 157.491 488.011 158.069 485.362C146.978 483.192 136.459 480.839 126.726 478.335C125.951 480.934 125.209 483.543 124.504 486.164C135.069 488.895 145.178 491.106 153.503 492.768C154.416 492.95 155.351 493.12 156.27 493.299Z" fill="#D18109"/>
<path d="M204.75 492.895C193.189 491.388 181.912 489.672 171.087 487.773C170.511 490.423 169.915 493.068 169.298 495.71C180.534 497.678 192.115 499.43 203.872 500.952C204.138 498.262 204.429 495.577 204.75 492.895Z" fill="#D18109"/>
<path d="M246.684 497.273C237.045 496.502 227.458 495.587 218.026 494.51C217.705 497.187 217.411 499.867 217.147 502.551C226.714 503.636 236.354 504.546 245.985 505.313C246.203 502.632 246.442 499.953 246.684 497.273Z" fill="#D18109"/>
<path d="M292.543 499.651C281.755 499.401 270.888 498.934 260.04 498.24C259.801 500.917 259.563 503.594 259.348 506.275C270.38 506.98 281.325 507.449 292.09 507.704C292.256 505.02 292.411 502.336 292.543 499.651Z" fill="#D18109"/>
<path d="M337.704 499.215C328.518 499.643 318.873 499.863 308.778 499.863C307.848 499.863 306.907 499.842 305.974 499.838C305.84 502.526 305.687 505.212 305.521 507.897C306.603 507.903 307.703 507.927 308.778 507.927C308.783 507.927 308.783 507.927 308.789 507.927C317.312 507.927 327.252 507.752 337.883 507.24C337.842 504.566 337.782 501.891 337.704 499.215Z" fill="#D18109"/>
<path d="M389.201 493.773C377.834 495.841 365.099 497.398 351.117 498.42C351.2 501.086 351.267 503.754 351.31 506.422C364.199 505.467 377.632 503.953 390.494 501.621C390.059 499.006 389.633 496.389 389.201 493.773Z" fill="#D18109"/>
<path d="M434.981 478.751C426.705 483.663 415.727 487.774 402.295 491.021C402.727 493.646 403.16 496.271 403.599 498.893C417.323 495.628 429.852 491.227 439.658 485.328C438.051 483.157 436.478 480.971 434.981 478.751Z" fill="#D18109"/>
<path d="M460.554 448.847C455.678 457.971 450.675 465.315 445.578 470.551C447.104 472.81 448.694 474.993 450.24 477.096C450.264 477.128 450.287 477.159 450.311 477.191C456.148 471.47 461.68 463.425 466.895 453.806C464.75 452.189 462.631 450.542 460.554 448.847Z" fill="#D18109"/>
<path d="M539.434 125.082C540 119.07 540.534 113.079 541.028 107.126C541.399 102.644 541.817 98.2088 542.228 93.8368C542.379 92.2401 542.528 90.6516 542.675 89.0657C539.991 88.9004 537.305 88.7552 534.619 88.6275C534.482 90.1032 534.342 91.5843 534.202 93.0801C533.786 97.4817 533.366 101.948 532.991 106.459C532.495 112.446 531.958 118.481 531.389 124.551C534.072 124.673 536.754 124.851 539.434 125.082Z" fill="#D18109"/>
<path d="M534.574 170.313C535.863 159.614 537.056 148.915 538.141 138.266C535.461 138.026 532.78 137.843 530.097 137.725C529.027 148.245 527.851 158.851 526.579 169.484C529.245 169.745 531.91 170.022 534.574 170.313Z" fill="#D18109"/>
<path d="M528.339 216.913C529.96 205.867 531.495 194.736 532.922 183.574C530.262 183.288 527.599 183.022 524.935 182.769C523.552 193.646 522.063 204.524 520.485 215.353C523.11 215.814 525.726 216.337 528.339 216.913Z" fill="#D18109"/>
<path d="M518.502 228.599C516.775 239.844 514.954 251.01 513.033 262.02C515.653 262.445 518.281 262.821 520.914 263.168C522.812 252.327 524.621 241.294 526.343 230.15C523.735 229.575 521.121 229.052 518.502 228.599Z" fill="#D18109"/>
<path d="M510.671 275.234C509.06 284.008 507.395 292.676 505.671 301.18C508.297 301.534 510.918 301.942 513.539 302.37C515.26 293.88 516.927 285.193 518.549 276.376C515.916 276.028 513.289 275.656 510.671 275.234Z" fill="#D18109"/>
<path d="M502.924 314.352C500.082 327.648 497.105 340.518 494.001 352.795C496.637 353.138 499.263 353.548 501.885 353.985C503.915 345.942 505.799 338.029 507.526 330.415C508.636 325.523 509.729 320.538 510.807 315.488C508.185 315.068 505.557 314.689 502.924 314.352Z" fill="#D18109"/>
<path d="M490.594 365.849C488.144 374.949 485.628 383.697 483.046 391.983C485.691 392.357 488.334 392.736 490.973 393.144C493.655 384.481 496.167 375.663 498.523 366.891C495.886 366.49 493.243 366.146 490.594 365.849Z" fill="#D18109"/>
<path d="M478.858 404.862C474.899 416.526 470.809 427.135 466.608 436.451C468.675 438.239 470.794 439.965 472.949 441.651C477.914 430.856 482.538 418.734 486.812 406.024C484.163 405.622 481.514 405.227 478.858 404.862Z" fill="#D18109"/>
<path d="M53.5268 435.269C49.5687 427.351 45.5946 417.52 41.7239 406.165C39.1421 406.979 36.5576 407.787 33.9731 408.589C37.9231 420.254 42.15 430.796 46.5959 439.524C48.9035 438.103 51.2124 436.681 53.5268 435.269Z" fill="#D18109"/>
<path d="M37.6045 393.377C35.2068 385.514 32.867 377.102 30.6172 368.231C28.0354 368.978 25.4697 369.77 22.9175 370.604C25.0988 379.235 27.4265 387.694 29.8793 395.791C32.4557 394.992 35.0308 394.188 37.6045 393.377Z" fill="#D18109"/>
<path d="M12.5557 270.269C11.2372 259.398 10.201 248.931 9.46183 238.999C6.80478 239.359 4.1518 239.739 1.50146 240.14C2.28769 250.587 3.35888 261.211 4.62895 271.724C7.27525 271.269 9.91745 270.779 12.5557 270.269Z" fill="#D18109"/>
<path d="M323.547 42.2843C323.014 39.6622 322.463 37.0442 321.896 34.4288C310.16 37.2511 298.333 40.1515 286.5 43.1149C287.09 45.7263 287.652 48.3444 288.198 50.9665C299.862 48.0393 311.663 45.1417 323.547 42.2843Z" fill="#D18109"/>
<path d="M225.16 67.4249C224.571 64.796 224.017 62.1605 223.511 59.5169C213.193 62.315 202.991 65.1401 192.974 67.9813C193.677 70.5819 194.396 73.1785 195.125 75.771C204.901 72.9917 214.94 70.2056 225.16 67.4249Z" fill="#D18109"/>
</svg>
