<svg width="18" height="16" viewBox="0 0 18 16" fill="none" xmlns="http://www.w3.org/2000/svg">
<path d="M18 8C17.9952 7.17124 17.6561 6.37832 17.0574 5.79565C16.4588 5.21298 15.6495 4.88829 14.8077 4.893C14.7061 4.893 14.6045 4.89871 14.5064 4.90786C14.5645 4.82872 14.6193 4.74701 14.6701 4.6613C14.8794 4.30784 15.0153 3.91695 15.0698 3.51135C15.1243 3.10576 15.0964 2.69354 14.9877 2.29865C14.879 1.90376 14.6916 1.53408 14.4365 1.21109C14.1814 0.888104 13.8637 0.618248 13.5017 0.417207C12.7689 0.00463655 11.9005 -0.107364 11.0845 0.105427C10.2684 0.318219 9.57025 0.838699 9.14097 1.5543C9.08989 1.64001 9.04491 1.72743 9.00341 1.81571C8.96191 1.72743 8.91634 1.64001 8.86585 1.5543C8.43656 0.838699 7.73839 0.318219 6.92234 0.105427C6.10628 -0.107364 5.23794 0.00463655 4.50511 0.417207C4.14315 0.618248 3.82539 0.888104 3.57029 1.21109C3.31519 1.53408 3.12784 1.90376 3.01913 2.29865C2.91042 2.69354 2.88251 3.10576 2.93703 3.51135C2.99155 3.91695 3.12741 4.30784 3.33671 4.6613C3.3875 4.74701 3.44264 4.82872 3.50039 4.90786C3.40114 4.89871 3.30073 4.893 3.19915 4.893C2.78109 4.88742 2.36607 4.96366 1.97819 5.1173C1.59031 5.27093 1.2373 5.49891 0.939659 5.78797C0.64202 6.07704 0.405683 6.42143 0.244375 6.80117C0.0830662 7.1809 0 7.5884 0 8C0 8.4116 0.0830662 8.8191 0.244375 9.19883C0.405683 9.57856 0.64202 9.92296 0.939659 10.212C1.2373 10.5011 1.59031 10.7291 1.97819 10.8827C2.36607 11.0363 2.78109 11.1126 3.19915 11.107C3.30073 11.107 3.4023 11.1013 3.50039 11.0921C3.44235 11.1713 3.3875 11.253 3.33671 11.3387C3.12741 11.6922 2.99155 12.083 2.93703 12.4886C2.88251 12.8942 2.91042 13.3065 3.01913 13.7013C3.12784 14.0962 3.31519 14.4659 3.57029 14.7889C3.82539 15.1119 4.14315 15.3818 4.50511 15.5828C5.23794 15.9954 6.10628 16.1074 6.92234 15.8946C7.73839 15.6818 8.43656 15.1613 8.86585 14.4457C8.91692 14.36 8.96191 14.2726 9.00341 14.1843C9.04491 14.2726 9.09047 14.36 9.14097 14.4457C9.57025 15.1613 10.2684 15.6818 11.0845 15.8946C11.9005 16.1074 12.7689 15.9954 13.5017 15.5828C13.8637 15.3818 14.1814 15.1119 14.4365 14.7889C14.6916 14.4659 14.879 14.0962 14.9877 13.7013C15.0964 13.3065 15.1243 12.8942 15.0698 12.4886C15.0153 12.083 14.8794 11.6922 14.6701 11.3387C14.6193 11.253 14.5642 11.1713 14.5064 11.0921C14.6057 11.1013 14.7061 11.107 14.8077 11.107C15.6495 11.1117 16.4588 10.787 17.0574 10.2043C17.6561 9.62168 17.9952 8.82876 18 8ZM9.00341 10.5713C8.48682 10.5713 7.98183 10.4205 7.55231 10.138C7.12278 9.85543 6.788 9.45384 6.59031 8.984C6.39262 8.51415 6.3409 7.99715 6.44168 7.49836C6.54246 6.99958 6.79122 6.54141 7.15651 6.18181C7.52179 5.82221 7.98719 5.57731 8.49385 5.4781C9.00051 5.37888 9.52568 5.4298 10.0029 5.62442C10.4802 5.81904 10.8881 6.14861 11.1751 6.57146C11.4621 6.99431 11.6153 7.49144 11.6153 8C11.6153 8.68195 11.3401 9.33598 10.8503 9.81819C10.3605 10.3004 9.69613 10.5713 9.00341 10.5713Z" fill="white"/>
</svg>
