<svg width="81" height="82" viewBox="0 0 81 82" fill="none" xmlns="http://www.w3.org/2000/svg">
<path d="M80.233 37.5286C78.433 32.4376 72.487 30.9686 67.721 30.4056C64.966 30.0806 62.0531 29.8646 59.5211 28.6436C59.1446 28.4615 58.7823 28.2516 58.4371 28.0156C56.9124 23.6722 55.3876 19.3286 53.863 14.9846C53.104 12.8246 52.382 10.6476 51.575 8.50459C50.9753 6.74989 50.128 5.08988 49.059 3.57466C48.0069 2.08995 46.5049 0.983316 44.7751 0.418534C43.0453 -0.146248 41.1796 -0.139289 39.454 0.438553C35.699 1.65055 33.0361 4.75763 31.4631 8.26363C28.6381 14.5556 28.225 25.3875 19.889 27.1315C15.837 27.9785 11.6501 26.6826 7.60407 27.6016C4.46807 28.3146 1.14099 30.3017 0.221991 33.5747C-1.09001 38.2447 3.70999 41.8206 6.84199 44.3696C10.2243 47.1178 13.8465 49.5569 17.665 51.6575L14.935 56.0626L11.1501 62.1706C9.93464 63.947 8.95288 65.8725 8.22907 67.8996C7.18707 71.2836 8.12108 75.7776 11.8121 77.0916C13.8831 77.8286 16.0801 77.3085 18.0991 76.6525C20.149 75.9859 22.1569 75.1965 24.112 74.2887C28.1739 72.4099 31.997 70.0529 35.5001 67.2677C37.7781 69.3917 39.0951 72.3206 40.6871 74.9676C42.3771 77.7756 44.5291 80.1427 47.6871 81.2677C50.4871 82.2607 53.875 82.1136 55.809 79.5626C56.8814 77.99 57.3943 76.1026 57.2651 74.2036C57.2411 72.0926 56.9271 69.9707 56.7231 67.8717C56.2564 63.0657 55.7897 58.2596 55.3231 53.4536C60.9451 51.4706 67.278 52.5446 72.764 50.0966C77.436 48.0096 82.185 43.0446 80.233 37.5286Z" fill="#2D3E54"/>
<path d="M44.0321 50.1966L43.2322 53.8316C43.1758 54.157 43.2491 54.4914 43.4365 54.7633C43.6239 55.0351 43.9105 55.2228 44.2346 55.2858C44.5587 55.3489 44.8946 55.2824 45.1703 55.1007C45.4459 54.9189 45.6393 54.6364 45.7091 54.3137L46.5091 50.6777C46.5641 50.3529 46.4899 50.0193 46.3023 49.7485C46.1148 49.4776 45.8288 49.2909 45.5054 49.2281C45.1819 49.1653 44.8468 49.2315 44.5715 49.4124C44.2962 49.5934 44.1026 49.8748 44.0321 50.1966Z" fill="#D39A4A"/>
<path d="M40.6311 38.9506C40.331 38.8044 39.9853 38.782 39.6689 38.8885C39.3525 38.995 39.0907 39.2217 38.94 39.5196C38.6207 40.4149 38.301 41.3099 37.981 42.2045C37.8419 42.5058 37.8232 42.8488 37.9288 43.1634C38.0344 43.478 38.2563 43.7403 38.549 43.8965C38.8492 44.0431 39.1952 44.0655 39.5118 43.959C39.8284 43.8526 40.0904 43.6258 40.241 43.3276L41.1991 40.6425C41.3382 40.3413 41.3569 39.9982 41.2513 39.6837C41.1457 39.3691 40.9238 39.1069 40.6311 38.9506Z" fill="#D39A4A"/>
<path d="M49.5381 39.6407C49.3328 40.6613 49.1275 41.6813 48.9221 42.7006C48.8671 43.0254 48.9414 43.359 49.1289 43.6298C49.3165 43.9007 49.6025 44.0874 49.9259 44.1502C50.2493 44.213 50.5843 44.1469 50.8596 43.9659C51.1349 43.7849 51.3286 43.5035 51.3992 43.1817L52.0151 40.1216C52.0702 39.7968 51.9959 39.4634 51.8084 39.1926C51.6208 38.9217 51.3348 38.7349 51.0114 38.6721C50.688 38.6093 50.3529 38.6755 50.0776 38.8565C49.8024 39.0375 49.6087 39.3189 49.5381 39.6407Z" fill="#D39A4A"/>
<path d="M71.3122 42.4027C71.0122 42.2567 70.6668 42.2344 70.3505 42.3406C70.0342 42.4469 69.7723 42.6732 69.6213 42.9707L68.4711 46.0387C68.3323 46.34 68.3141 46.6829 68.4199 46.9972C68.5256 47.3116 68.7476 47.5737 69.0402 47.7298C69.3404 47.8757 69.6858 47.8979 70.0021 47.7914C70.3185 47.685 70.5803 47.4584 70.7311 47.1607L71.8813 44.0927C72.0198 43.7915 72.0378 43.4489 71.9321 43.1348C71.8263 42.8207 71.6046 42.5588 71.3122 42.4027Z" fill="#D39A4A"/>
<path d="M37.0972 23.6486C36.7971 23.5024 36.4515 23.48 36.1351 23.5865C35.8186 23.693 35.5568 23.9197 35.4062 24.2176L34.3401 27.2476C34.2013 27.5488 34.1828 27.8915 34.2884 28.2059C34.394 28.5202 34.6156 28.7824 34.9081 28.9387C35.2083 29.0852 35.5543 29.1076 35.8709 29.0012C36.1875 28.8947 36.4495 28.6677 36.6001 28.3696L37.6662 25.3397C37.805 25.0384 37.8234 24.6954 37.7176 24.381C37.6118 24.0667 37.3899 23.8047 37.0972 23.6486Z" fill="#D39A4A"/>
<path d="M46.1991 13.0665C45.899 12.9203 45.5534 12.898 45.2369 13.0045C44.9205 13.111 44.6587 13.3377 44.5081 13.6356L43.3591 16.7046C43.2204 17.0058 43.202 17.3487 43.3077 17.6631C43.4135 17.9774 43.6354 18.2395 43.9281 18.3956C44.2283 18.5416 44.5738 18.5637 44.8901 18.4573C45.2065 18.3508 45.4683 18.1243 45.6191 17.8265L46.7671 14.7576C46.906 14.4564 46.9246 14.1136 46.819 13.7993C46.7134 13.485 46.4916 13.2228 46.1991 13.0665Z" fill="#D39A4A"/>
<path d="M29.7641 37.6927C29.4362 37.637 29.0996 37.7099 28.8241 37.8962C28.5486 38.0824 28.3555 38.3677 28.2851 38.6927L26.9431 42.9107C26.8811 43.2393 26.9514 43.579 27.1387 43.856C27.326 44.133 27.6151 44.3248 27.9431 44.3897C28.271 44.4454 28.6076 44.3726 28.8831 44.1863C29.1586 44.0001 29.3517 43.7147 29.4221 43.3897L30.765 39.1707C30.8264 38.8422 30.7558 38.5027 30.5684 38.226C30.381 37.9493 30.0919 37.7576 29.7641 37.6927Z" fill="#D39A4A"/>
<path d="M33.5701 49.1887C33.2421 49.1315 32.9047 49.2037 32.6288 49.3902C32.353 49.5767 32.1602 49.863 32.0911 50.1887L31.3112 53.0616C31.2506 53.39 31.3214 53.7292 31.5085 54.0058C31.6955 54.2825 31.9838 54.4745 32.3112 54.5406C32.6392 54.5978 32.9766 54.5257 33.2525 54.3392C33.5283 54.1527 33.7211 53.8664 33.7902 53.5406L34.5701 50.6677C34.6308 50.3393 34.5599 50.0001 34.3729 49.7235C34.1858 49.4468 33.8975 49.2548 33.5701 49.1887Z" fill="#D39A4A"/>
<path d="M45.296 62.2366C44.9684 62.1829 44.6328 62.2567 44.3578 62.4426C44.0828 62.6286 43.8892 62.9126 43.817 63.2366C43.6257 63.8759 43.434 64.5149 43.242 65.1536C43.1795 65.4822 43.2496 65.8222 43.437 66.0994C43.6244 66.3765 43.9138 66.5682 44.242 66.6326C44.5696 66.6862 44.9054 66.6126 45.1804 66.4266C45.4554 66.2407 45.6488 65.9566 45.721 65.6326L46.296 63.7146C46.3585 63.3861 46.2884 63.0463 46.1011 62.7693C45.9137 62.4923 45.6242 62.3007 45.296 62.2366Z" fill="#D39A4A"/>
<path d="M54.2461 64.8376C53.9456 64.6942 53.601 64.6735 53.2854 64.7797C52.9698 64.8859 52.7078 65.1108 52.5551 65.4067L51.5961 67.5157C51.519 67.6644 51.4724 67.827 51.4588 67.994C51.4452 68.161 51.4648 68.329 51.5169 68.4882C51.5689 68.6475 51.6522 68.7948 51.7617 68.9216C51.8713 69.0483 52.0049 69.152 52.1549 69.2265C52.305 69.3011 52.4683 69.345 52.6355 69.3558C52.8027 69.3665 52.9705 69.3439 53.1288 69.2891C53.2872 69.2344 53.433 69.1487 53.5579 69.0371C53.6828 68.9254 53.7841 68.7899 53.8561 68.6386L54.8151 66.5286C54.9584 66.2281 54.9793 65.8836 54.8731 65.5679C54.7669 65.2523 54.542 64.9904 54.2461 64.8376Z" fill="#D39A4A"/>
<path d="M50.0932 73.1677C49.7653 73.112 49.4286 73.1849 49.1531 73.3711C48.8776 73.5574 48.6846 73.8427 48.6142 74.1677L47.6271 77.2267C47.5651 77.5553 47.6354 77.8951 47.8227 78.172C48.0099 78.449 48.2991 78.6409 48.6271 78.7057C48.9549 78.7614 49.2917 78.6885 49.5672 78.5022C49.8426 78.316 50.0356 78.0307 50.1061 77.7057L51.0932 74.6467C51.1549 74.3181 51.0845 73.9785 50.8972 73.7016C50.71 73.4247 50.421 73.2328 50.0932 73.1677Z" fill="#D39A4A"/>
<path d="M56.3711 29.1816C56.0705 29.0386 55.7261 29.018 55.4105 29.1241C55.095 29.2303 54.8332 29.455 54.6802 29.7507L53.3302 32.2397C53.2515 32.3887 53.2034 32.5517 53.1887 32.7195C53.1741 32.8873 53.1932 33.0564 53.2449 33.2167C53.2966 33.377 53.3797 33.5252 53.4896 33.6528C53.5995 33.7805 53.7339 33.8848 53.8848 33.9597C54.0356 34.0346 54.2 34.0786 54.3681 34.089C54.5362 34.0994 54.7046 34.076 54.8635 34.0203C55.0225 33.9645 55.1687 33.8775 55.2935 33.7644C55.4183 33.6513 55.5192 33.5144 55.5902 33.3617L56.9402 30.8737C57.0849 30.5731 57.1063 30.228 57 29.9119C56.8937 29.5957 56.668 29.3337 56.3711 29.1816Z" fill="#D39A4A"/>
<path d="M45.6722 28.6756C45.3444 28.6201 45.0078 28.6932 44.7324 28.8794C44.4569 29.0656 44.2639 29.3507 44.1932 29.6756L43.4231 31.9756C43.3609 32.3042 43.4311 32.6441 43.6185 32.9212C43.8058 33.1982 44.095 33.39 44.4231 33.4546C44.7509 33.5098 45.0874 33.4367 45.3627 33.2505C45.6381 33.0643 45.8312 32.7794 45.9022 32.4546C46.1588 31.6879 46.4155 30.9212 46.6722 30.1546C46.7342 29.826 46.6639 29.4862 46.4766 29.2093C46.2893 28.9323 46.0002 28.7404 45.6722 28.6756Z" fill="#D39A4A"/>
<path d="M39.4401 4.80069C39.1399 4.65498 38.7944 4.63287 38.4782 4.73929C38.1619 4.84571 37.9001 5.07212 37.7491 5.36966C37.4091 6.19233 37.0687 7.0147 36.7281 7.8367C36.5875 8.1377 36.5683 8.48122 36.6742 8.79605C36.7802 9.11089 37.0031 9.37281 37.297 9.52762C37.5972 9.67333 37.9427 9.69544 38.2589 9.58902C38.5752 9.4826 38.837 9.2562 38.9881 8.95865L40.0091 6.49161C40.1496 6.19062 40.1688 5.8471 40.0629 5.53226C39.957 5.21742 39.734 4.9555 39.4401 4.80069Z" fill="#D39A4A"/>
<path d="M52.7631 21.1456C52.4622 21.0043 52.1184 20.9847 51.8034 21.0907C51.4883 21.1967 51.2263 21.4202 51.0721 21.7146L49.9101 23.8146C49.7641 24.1147 49.742 24.4603 49.8484 24.7766C49.9549 25.0929 50.1813 25.3548 50.479 25.5056C50.7799 25.6469 51.1237 25.6666 51.4388 25.5605C51.7538 25.4545 52.0158 25.2311 52.1701 24.9366L53.3321 22.8367C53.478 22.5365 53.5002 22.191 53.3937 21.8746C53.2873 21.5583 53.0608 21.2965 52.7631 21.1456Z" fill="#D39A4A"/>
<path d="M34.1102 15.1717C33.8099 15.0265 33.4646 15.0048 33.1485 15.1111C32.8324 15.2175 32.5705 15.4435 32.4191 15.7407L31.2681 18.4257C31.1271 18.7266 31.1076 19.0703 31.2135 19.3853C31.3195 19.7003 31.5428 19.9622 31.8371 20.1166C32.1374 20.2618 32.4826 20.2835 32.7988 20.1772C33.1149 20.0708 33.3767 19.8448 33.5281 19.5477L34.6791 16.8626C34.8202 16.5617 34.8397 16.218 34.7337 15.903C34.6277 15.588 34.4044 15.3261 34.1102 15.1717Z" fill="#D39A4A"/>
<path d="M26.4421 30.1297C26.1413 29.9881 25.7974 29.9682 25.4823 30.0742C25.1672 30.1803 24.9052 30.404 24.7511 30.6986L23.2171 33.1917C23.0712 33.4918 23.0489 33.8372 23.1554 34.1536C23.2618 34.4699 23.4884 34.7317 23.7861 34.8826C24.0868 35.0242 24.4306 35.0442 24.7457 34.9384C25.0608 34.8325 25.3229 34.609 25.4772 34.3146L27.0111 31.8217C27.1574 31.5214 27.1797 31.1756 27.0732 30.859C26.9668 30.5425 26.7401 30.2805 26.4421 30.1297Z" fill="#D39A4A"/>
<path d="M11.5882 31.2866C11.335 31.0696 11.007 30.9603 10.6742 30.9818C10.3415 31.0033 10.0304 31.1539 9.80718 31.4016L8.66522 32.9426C8.55589 33.0674 8.47214 33.2125 8.41888 33.3696C8.36562 33.5267 8.34388 33.6927 8.35479 33.8583C8.3657 34.0238 8.40905 34.1855 8.48248 34.3342C8.5559 34.4829 8.65789 34.6159 8.78265 34.7252C8.9074 34.8345 9.05255 34.9181 9.20965 34.9714C9.36675 35.0247 9.53278 35.0465 9.6983 35.0356C9.86382 35.0247 10.0255 34.9812 10.1742 34.9078C10.323 34.8344 10.4558 34.7324 10.5651 34.6076L11.7072 33.0676C11.9208 32.8126 12.0276 32.4851 12.0054 32.1533C11.9833 31.8214 11.8338 31.5109 11.5882 31.2866Z" fill="#D39A4A"/>
<path d="M16.1501 38.6506C15.822 38.5932 15.4844 38.6653 15.2085 38.8518C14.9326 39.0384 14.7399 39.3248 14.6711 39.6506C14.6611 39.6946 14.5711 40.0326 14.5791 40.0166C14.5192 40.1737 14.4483 40.3264 14.3671 40.4736C14.3341 40.5356 14.297 40.5956 14.26 40.6556C14.23 40.6908 14.2023 40.7278 14.1772 40.7666C14.0582 40.9046 13.942 41.0396 13.812 41.1666C13.5911 41.4186 13.4794 41.7479 13.5014 42.0823C13.5233 42.4167 13.6772 42.7287 13.9291 42.9496C14.1811 43.1705 14.5105 43.2823 14.8449 43.2604C15.1793 43.2384 15.4911 43.0846 15.7121 42.8326C16.4458 42.0927 16.9468 41.154 17.1531 40.1326C17.2145 39.8033 17.1437 39.4631 16.956 39.1857C16.7682 38.9083 16.4786 38.716 16.1501 38.6506Z" fill="#D39A4A"/>
<path d="M22.7621 51.4018C22.4618 51.2555 22.1161 51.233 21.7996 51.3395C21.483 51.446 21.221 51.6727 21.0702 51.9707L19.9262 55.0407C19.7874 55.3419 19.769 55.6848 19.8748 55.9992C19.9805 56.3135 20.2025 56.5756 20.4951 56.7317C20.7952 56.878 21.1409 56.9002 21.4573 56.7937C21.7737 56.6873 22.0355 56.4607 22.1862 56.1627L23.3301 53.0917C23.4686 52.7907 23.487 52.4482 23.3815 52.1341C23.2759 51.8199 23.0543 51.558 22.7621 51.4018Z" fill="#D39A4A"/>
<path d="M33.5361 60.6186C33.236 60.4728 32.8907 60.4506 32.5744 60.5568C32.2582 60.6631 31.9963 60.8892 31.8451 61.1866L30.8861 63.4865C30.7453 63.7875 30.7259 64.1312 30.8319 64.4461C30.9379 64.761 31.1611 65.0229 31.4552 65.1776C31.7554 65.323 32.1007 65.3449 32.4169 65.2385C32.733 65.1321 32.9949 64.906 33.1461 64.6086L34.1051 62.3086C34.2456 62.0077 34.2649 61.6644 34.1589 61.3497C34.053 61.035 33.8299 60.7732 33.5361 60.6186Z" fill="#D39A4A"/>
<path d="M22.8551 64.4786C22.5546 64.3352 22.21 64.3145 21.8944 64.4207C21.5788 64.5269 21.3169 64.7517 21.1641 65.0476L20.2551 66.9886C20.1765 67.1375 20.1283 67.3007 20.1137 67.4685C20.099 67.6362 20.1181 67.8052 20.1698 67.9655C20.2215 68.1258 20.3047 68.2742 20.4146 68.4018C20.5245 68.5294 20.6589 68.6337 20.8097 68.7086C20.9606 68.7835 21.1249 68.8274 21.293 68.8378C21.4611 68.8482 21.6295 68.8248 21.7885 68.7691C21.9474 68.7134 22.0936 68.6265 22.2184 68.5134C22.3432 68.4003 22.4441 68.2634 22.5152 68.1107L23.4241 66.1696C23.568 65.8691 23.5891 65.5244 23.4828 65.2087C23.3766 64.8929 23.1514 64.631 22.8551 64.4786Z" fill="#D39A4A"/>
<path d="M13.6562 67.0307C13.3284 66.9753 12.9918 67.0482 12.7164 67.2344C12.4409 67.4206 12.2479 67.7058 12.1772 68.0307L11.2192 70.9067C11.1569 71.2353 11.2272 71.5751 11.4145 71.8522C11.6018 72.1293 11.891 72.321 12.2192 72.3857C12.547 72.4411 12.8836 72.3681 13.159 72.1819C13.4344 71.9957 13.6275 71.7105 13.6982 71.3857C14.0182 70.427 14.3378 69.4683 14.6572 68.5097C14.7191 68.181 14.6487 67.841 14.4612 67.564C14.2737 67.287 13.9844 67.0953 13.6562 67.0307Z" fill="#D39A4A"/>
<path d="M65.3681 33.7737C65.0678 33.6282 64.7226 33.6064 64.4064 33.7128C64.0902 33.8192 63.8283 34.0453 63.677 34.3427L62.7181 36.6427C62.5775 36.9437 62.5583 37.2872 62.6642 37.6021C62.7702 37.9169 62.9932 38.1788 63.2871 38.3336C63.5874 38.4791 63.9326 38.5009 64.2488 38.3945C64.565 38.2881 64.8268 38.062 64.9781 37.7647L65.9361 35.4646C66.0769 35.1638 66.0965 34.8203 65.9908 34.5054C65.885 34.1905 65.662 33.9285 65.3681 33.7737Z" fill="#D39A4A"/>
<path d="M61.3402 42.4027C61.0397 42.26 60.6954 42.2395 60.38 42.3454C60.0646 42.4514 59.8027 42.6755 59.6492 42.9707L58.6902 44.8877C58.6131 45.0364 58.5663 45.199 58.5527 45.3659C58.5391 45.5329 58.559 45.701 58.611 45.8602C58.663 46.0195 58.7462 46.1668 58.8557 46.2936C58.9653 46.4203 59.099 46.5239 59.249 46.5985C59.3991 46.673 59.5624 46.717 59.7296 46.7278C59.8968 46.7385 60.0644 46.7158 60.2228 46.6611C60.3811 46.6064 60.527 46.5207 60.6519 46.409C60.7767 46.2973 60.8782 46.1619 60.9502 46.0106L61.9092 44.0936C62.0541 43.7933 62.0757 43.4482 61.9694 43.1322C61.863 42.8161 61.6372 42.5543 61.3402 42.4027Z" fill="#D39A4A"/>
<path d="M52.3281 55.2496C52.0275 55.107 51.6832 55.0867 51.3678 55.1929C51.0524 55.299 50.7904 55.5232 50.6371 55.8186L49.6781 57.7367C49.601 57.8854 49.5544 58.048 49.5408 58.2149C49.5272 58.3819 49.547 58.55 49.599 58.7092C49.651 58.8685 49.7342 59.0158 49.8438 59.1426C49.9533 59.2693 50.0869 59.3731 50.2369 59.4476C50.387 59.5222 50.5505 59.566 50.7177 59.5768C50.8849 59.5875 51.0525 59.5648 51.2108 59.5101C51.3692 59.4554 51.515 59.3697 51.6399 59.258C51.7648 59.1463 51.8661 59.0109 51.9381 58.8596L52.8971 56.9416C53.0421 56.6412 53.0637 56.2959 52.9574 55.9797C52.8511 55.6635 52.6252 55.4014 52.3281 55.2496Z" fill="#D39A4A"/>
</svg>
