<svg width="45" height="45" viewBox="0 0 45 45" fill="none" xmlns="http://www.w3.org/2000/svg">
<mask id="mask0_1_4906" style="mask-type:luminance" maskUnits="userSpaceOnUse" x="0" y="0" width="45" height="45">
<path d="M0 -3.8147e-06H45V45H0V-3.8147e-06Z" fill="white"/>
</mask>
<g mask="url(#mask0_1_4906)">
<path d="M32.8711 5.27344C32.8711 6.24423 32.0841 7.03121 31.1133 7.03121C30.1425 7.0312 29.3555 6.24423 29.3555 5.27344C29.3555 4.30264 30.1425 3.51561 31.1133 3.5156C32.0841 3.5156 32.8711 4.30263 32.8711 5.27344ZM36.3867 5.27344C36.3867 2.36106 34.0258 -9.53674e-07 31.1133 -9.53674e-07C28.2008 1.04904e-05 25.8398 2.36107 25.8398 5.27344C25.8399 8.1858 28.2008 10.5469 31.1133 10.5469C34.0258 10.5469 36.3867 8.1858 36.3867 5.27344Z" fill="#92278F"/>
<path d="M14.0625 36.2109C14.0625 39.1233 11.7016 41.4843 8.78911 41.4843C5.87665 41.4843 3.51567 39.1234 3.51567 36.2109C3.51568 33.2984 5.87666 30.9375 8.78911 30.9375C11.7015 30.9375 14.0625 33.2985 14.0625 36.2109ZM17.5781 36.2109C17.5781 31.3568 13.6432 27.4219 8.78911 27.4219C3.93503 27.4219 1.18231e-05 31.3568 0 36.2109C0 41.065 3.93502 45 8.78911 45C13.6432 45 17.5781 41.065 17.5781 36.2109Z" fill="#92278F"/>
<path d="M27.4219 36.2109C27.4219 41.065 31.3569 45 36.211 45C36.8509 45 37.4769 44.9313 38.0812 44.8003C39.0299 44.5944 39.6322 43.6585 39.4264 42.7097C39.2206 41.761 38.2846 41.1587 37.3358 41.3645C36.9751 41.4428 36.599 41.4843 36.211 41.4843C33.2985 41.4843 30.9375 39.1234 30.9375 36.2109C30.9376 33.2985 33.2985 30.9375 36.211 30.9375C39.1234 30.9375 41.4844 33.2985 41.4844 36.2109C41.4844 36.5768 41.4474 36.9321 41.3776 37.2739C41.1831 38.225 41.7965 39.1537 42.7477 39.3482C43.6988 39.5426 44.6275 38.9291 44.822 37.978C44.939 37.4057 45 36.8144 45 36.2109C45 31.3569 41.0651 27.4219 36.211 27.4219C31.3569 27.4219 27.4219 31.3569 27.4219 36.2109Z" fill="#92278F"/>
<path d="M20.3768 22.7294C21.086 23.3924 22.1983 23.3549 22.8612 22.6457L28.5302 16.5812C29.1931 15.872 29.1557 14.7597 28.4464 14.0968C27.7372 13.4338 26.6249 13.4713 25.962 14.1805L20.293 20.245C19.6301 20.9542 19.6676 22.0665 20.3768 22.7294Z" fill="#92278F"/>
<path d="M22.4013 42.3534C23.3667 42.4565 24.2328 41.7576 24.3359 40.7923L25.1038 33.6015V33.6014C25.2902 31.8557 24.5957 30.1315 23.2508 29.0025L15.6952 22.6594C15.0005 22.0083 14.9502 20.9204 15.5852 20.2079L21.3981 13.9369C21.4042 13.9303 21.4102 13.9237 21.4162 13.917C21.7609 13.5336 22.2541 13.3391 22.7885 13.3584L22.8292 13.3602C23.2479 13.3833 23.6179 13.5295 23.9063 13.7919L23.9068 13.7923L24.1342 13.9991C25.5999 15.3326 26.8949 16.8425 27.9894 18.4943L30.0116 21.5459C30.9884 23.0201 32.639 23.9064 34.4074 23.9064H39.3751C40.3459 23.9064 41.1329 23.1194 41.1329 22.1486C41.1329 21.1777 40.3459 20.3907 39.3751 20.3907H34.4074C33.8179 20.3907 33.2678 20.0953 32.9422 19.604L32.9422 19.6039L30.92 16.5523C29.665 14.6584 28.1802 12.9272 26.4997 11.3983L26.4993 11.3979L26.2722 11.1915C25.3053 10.3118 24.1201 9.89997 22.9696 9.84726L22.9149 9.84501C21.4481 9.79226 19.9239 10.3312 18.8198 11.5469L12.9939 17.832C12.9878 17.8385 12.9818 17.8451 12.9758 17.8518C11.0372 20.0083 11.2034 23.3254 13.3479 25.2773L13.3742 25.3007C13.383 25.3084 13.3919 25.316 13.4009 25.3236L20.9904 31.6952L20.9905 31.6953C21.4246 32.0596 21.6555 32.6103 21.613 33.1737L21.608 33.2282L20.8401 40.4189C20.737 41.3842 21.436 42.2504 22.4013 42.3534Z" fill="#92278F"/>
</g>
</svg>
