<svg width="48" height="31" viewBox="0 0 48 31" fill="none" xmlns="http://www.w3.org/2000/svg">
<path d="M43.1245 23.6625C41.4492 23.6625 39.8857 23.1 38.7242 22.0687C38.1881 21.6 37.4956 21.3375 36.7362 21.3375C35.9991 21.3375 35.2843 21.6 34.7706 22.0687C32.4252 24.1312 28.3153 24.1312 25.97 22.0687C24.8978 21.1312 23.0885 21.1312 22.0164 22.0687C19.671 24.1312 15.5611 24.1312 13.2158 22.0687C12.6797 21.6 11.9873 21.3375 11.2502 21.3375C10.513 21.3375 9.79827 21.6 9.26219 22.0687C6.91685 24.1312 2.80692 24.1312 0.461579 22.0687C-0.186182 21.5062 -0.141509 20.625 0.528589 20.0812C1.19869 19.5375 2.24851 19.575 2.89627 20.1375C3.96842 21.075 5.77769 21.075 6.84984 20.1375C8.01134 19.1062 9.57491 18.5437 11.2502 18.5437C12.9254 18.5437 14.489 19.1062 15.6505 20.1375C16.7226 21.075 18.5319 21.075 19.604 20.1375C21.9494 18.075 26.0593 18.075 28.4046 20.1375C29.4768 21.075 31.2861 21.075 32.3582 20.1375C33.5197 19.1062 35.0833 18.5437 36.7585 18.5437C38.4338 18.5437 39.9973 19.1062 41.1588 20.1375C42.231 21.075 44.0403 21.075 45.1124 20.1375C45.7602 19.575 46.81 19.5562 47.4801 20.0812C48.1502 20.625 48.1725 21.5062 47.5471 22.0687C46.3856 23.1 44.822 23.6625 43.1468 23.6625H43.1245Z" fill="white"/>
<path d="M43.1245 30.9376C41.4492 30.9376 39.8857 30.3751 38.7242 29.3438C38.1881 28.8751 37.4956 28.6126 36.7362 28.6126C35.9991 28.6126 35.2843 28.8751 34.7706 29.3438C32.4252 31.4063 28.293 31.4063 25.97 29.3438C24.8978 28.4063 23.0885 28.4063 22.0164 29.3438C19.671 31.4063 15.5611 31.4063 13.2158 29.3438C12.6797 28.8751 11.9873 28.6126 11.2502 28.6126C10.513 28.6126 9.79827 28.8751 9.26219 29.3438C6.91685 31.4063 2.80692 31.4063 0.461579 29.3438C-0.186182 28.7813 -0.141509 27.9001 0.528589 27.3563C1.19869 26.8126 2.24851 26.8501 2.89627 27.4126C3.96842 28.3501 5.77769 28.3501 6.84984 27.4126C8.01134 26.3813 9.57491 25.8188 11.2502 25.8188C12.9254 25.8188 14.489 26.3813 15.6505 27.4126C16.7226 28.3501 18.5319 28.3501 19.604 27.4126C21.9494 25.3501 26.0593 25.3501 28.4046 27.4126C29.4768 28.3501 31.2861 28.3501 32.3582 27.4126C33.5197 26.3813 35.0833 25.8188 36.7585 25.8188C38.4338 25.8188 39.9973 26.3813 41.1588 27.4126C42.231 28.3501 44.0403 28.3501 45.1124 27.4126C45.7602 26.8501 46.81 26.8313 47.4801 27.3563C48.1502 27.9001 48.1725 28.7813 47.5471 29.3438C46.3856 30.3751 44.822 30.9376 43.1468 30.9376H43.1245Z" fill="white"/>
<path d="M32.0679 14.175C31.5988 14.175 31.1297 14.0063 30.7947 13.6875L21.86 4.95005C20.4752 3.60005 18.4649 2.8313 16.3429 2.8313H6.11274C5.19694 2.8313 4.4375 2.21255 4.4375 1.42505C4.4375 0.637549 5.17461 0.0187988 6.11274 0.0187988H16.3429C19.4477 0.0187988 22.3738 1.1438 24.4064 3.1313L33.341 11.8688C33.9441 12.45 33.8548 13.35 33.1624 13.8563C32.8496 14.0813 32.4476 14.1938 32.0679 14.1938V14.175Z" fill="white"/>
<path d="M40.7345 12.1875C36.7362 12.1875 33.4751 9.45 33.4751 6.09375C33.4751 2.7375 36.7362 0 40.7345 0C44.7327 0 47.9939 2.7375 47.9939 6.09375C47.9939 9.45 44.7327 12.1875 40.7345 12.1875ZM40.7345 2.8125C38.5902 2.8125 36.8256 4.29375 36.8256 6.09375C36.8256 7.89375 38.5902 9.375 40.7345 9.375C42.8788 9.375 44.6434 7.89375 44.6434 6.09375C44.6434 4.29375 42.8788 2.8125 40.7345 2.8125Z" fill="white"/>
<path d="M11.2278 16.6501C12.0766 16.6501 12.903 16.8001 13.6848 17.0063L22.2174 11.4376C24.3394 10.0501 27.3772 10.3126 29.1194 12.0188L34.2345 17.0251C35.0386 16.8001 35.8874 16.6501 36.7809 16.6501C37.3393 16.6501 37.8977 16.7063 38.4114 16.7813L31.6658 10.1813C28.762 7.33131 23.6916 6.90006 20.1624 9.20631L7.76562 17.2876C8.83778 16.8751 9.99928 16.6313 11.2278 16.6313V16.6501Z" fill="white"/>
</svg>
