<svg width="45" height="45" viewBox="0 0 45 45" fill="none" xmlns="http://www.w3.org/2000/svg">
<mask id="mask0_1_4931" style="mask-type:luminance" maskUnits="userSpaceOnUse" x="0" y="0" width="45" height="46">
<path d="M45 0.000244141H0V45.0002H45V0.000244141Z" fill="white"/>
<path d="M20.7422 22.5C20.7422 21.5292 21.5292 20.7422 22.5 20.7422C23.4708 20.7422 24.2578 21.5292 24.2578 22.5C24.2578 23.4708 23.4708 24.2578 22.5 24.2578C21.5292 24.2578 20.7422 23.4708 20.7422 22.5Z" fill="white"/>
<path d="M21.7182 41.4671C11.6114 41.0554 3.51562 32.706 3.51562 22.5C3.51562 12.0321 12.032 3.51562 22.5 3.51562C29.9333 3.51562 36.3814 7.81067 39.4959 14.0488C40.3277 13.8007 40.8763 13.5635 40.9788 13.5179L42.7366 12.6423C41.6557 10.4278 40.2036 8.3838 38.41 6.59013C34.1602 2.34044 28.51 3.8147e-06 22.5 3.8147e-06C16.49 3.8147e-06 10.8398 2.34044 6.59004 6.59013C2.34044 10.8398 0 16.49 0 22.5C0 28.51 2.34044 34.1602 6.59004 38.41C10.8398 42.6596 16.49 45 22.5 45C22.8523 45 23.2032 44.9913 23.5529 44.9752C22.7172 43.958 22.0847 42.7677 21.7182 41.4671Z" fill="white"/>
</mask>
<g mask="url(#mask0_1_4931)">
<mask id="mask1_1_4931" style="mask-type:luminance" maskUnits="userSpaceOnUse" x="0" y="0" width="45" height="45">
<path d="M0 3.8147e-06H45V45H0V3.8147e-06Z" fill="white"/>
</mask>
<g mask="url(#mask1_1_4931)">
<path d="M27.4219 22.5C27.4219 25.2183 25.2183 27.4218 22.5 27.4218C19.7817 27.4218 17.5782 25.2183 17.5782 22.5C17.5782 19.7817 19.7817 17.5781 22.5 17.5781C25.2183 17.5781 27.4219 19.7817 27.4219 22.5ZM30.9375 22.5C30.9375 17.8401 27.1599 14.0625 22.5 14.0625C17.8401 14.0625 14.0625 17.8401 14.0625 22.5C14.0625 27.1599 17.8401 30.9375 22.5 30.9375C27.1599 30.9375 30.9375 27.1599 30.9375 22.5Z" fill="#92278F"/>
<path d="M20.7422 22.5C20.7422 21.5292 21.5292 20.7422 22.5 20.7422C23.4708 20.7422 24.2578 21.5292 24.2578 22.5C24.2578 23.4708 23.4708 24.2578 22.5 24.2578C21.5292 24.2578 20.7422 23.4708 20.7422 22.5Z" fill="#92278F"/>
<path d="M33.6622 38.8476C33.6622 40.3038 32.4816 41.4843 31.0254 41.4843C29.5692 41.4843 28.3887 40.3038 28.3887 38.8476C28.3887 37.3914 29.5692 36.2109 31.0254 36.2109C32.4816 36.2109 33.6621 37.3914 33.6622 38.8476ZM37.1778 38.8476C37.1777 35.4498 34.4232 32.6953 31.0254 32.6953C27.6276 32.6953 24.8731 35.4498 24.873 38.8476C24.873 42.2454 27.6276 45 31.0254 45C34.4232 45 37.1778 42.2454 37.1778 38.8476Z" fill="#92278F"/>
<path d="M45 15.4884L42.4844 16.6951C42.4843 16.6952 42.4842 16.6953 42.484 16.6953C42.4815 16.6965 42.4757 16.6993 42.4667 16.7034C42.4488 16.7116 42.4182 16.7256 42.3756 16.7443C42.2903 16.7819 42.1573 16.8387 41.9816 16.9085C41.6296 17.0483 41.1094 17.2388 40.4609 17.4305C39.1561 17.816 37.3738 18.1934 35.4199 18.1934H33.6621V38.0674C33.6621 39.0382 34.4491 39.8252 35.4199 39.8252C36.3908 39.8252 37.1778 39.0382 37.1778 38.0674V28.7389C38.741 28.5849 40.1833 28.2546 41.3108 27.9343C42.0885 27.7134 42.7343 27.4922 43.1897 27.3245C43.4177 27.2405 43.599 27.1696 43.7263 27.1183C43.7899 27.0927 43.8402 27.072 43.876 27.057C43.894 27.0495 43.9084 27.0435 43.919 27.0389C43.9244 27.0366 43.9288 27.0347 43.9322 27.0332C43.934 27.0325 43.9355 27.0319 43.9368 27.0313C43.9374 27.031 43.938 27.0308 43.9386 27.0305C43.9388 27.0304 43.9391 27.0303 43.9393 27.0303C43.9396 27.0301 43.9399 27.03 43.2422 25.4166L43.9399 27.03L45 26.5716V15.4884ZM42.4844 16.6951L42.4848 16.695C42.4846 16.6951 42.4845 16.6951 42.4843 16.6952L42.4844 16.6951ZM37.1778 21.6286C38.8462 21.4778 40.3211 21.1376 41.4571 20.802C41.4662 20.7993 41.4753 20.7966 41.4844 20.7939V24.1989C41.1633 24.3082 40.7805 24.4303 40.3502 24.5525C39.4348 24.8125 38.3357 25.064 37.1778 25.2025V21.6286ZM42.4848 16.695C42.4851 16.6948 42.4853 16.6947 42.4855 16.6947C42.4854 16.6947 42.4852 16.6948 42.485 16.6949L42.4848 16.695Z" fill="#92278F"/>
<path d="M21.7182 41.4671C11.6114 41.0554 3.51562 32.706 3.51562 22.5C3.51562 12.0321 12.032 3.51562 22.5 3.51562C29.9333 3.51562 36.3814 7.81067 39.4959 14.0488C40.3277 13.8007 40.8763 13.5635 40.9788 13.5179L42.7366 12.6423C41.6557 10.4278 40.2036 8.3838 38.41 6.59013C34.1602 2.34044 28.51 3.8147e-06 22.5 3.8147e-06C16.49 3.8147e-06 10.8398 2.34044 6.59004 6.59013C2.34044 10.8398 0 16.49 0 22.5C0 28.51 2.34044 34.1602 6.59004 38.41C10.8398 42.6596 16.49 45 22.5 45C22.8523 45 23.2032 44.9913 23.5529 44.9752C22.7172 43.958 22.0847 42.7677 21.7182 41.4671Z" fill="#92278F"/>
</g>
</g>
</svg>
