<svg width="43" height="55" viewBox="0 0 43 55" fill="none" xmlns="http://www.w3.org/2000/svg">
<path d="M23.3326 14.0141C27.3158 14.0141 30.5564 10.8626 30.5564 6.98884C30.1596 -2.33098 16.5042 -2.32824 16.1089 6.98884C16.1088 10.8625 19.3494 14.0141 23.3326 14.0141ZM23.3326 3.24954C25.4528 3.24954 27.1777 4.92692 27.1777 6.98895C26.9666 11.9499 19.6979 11.9485 19.4875 6.98895C19.4874 4.92692 21.2124 3.24954 23.3326 3.24954Z" fill="white"/>
<path d="M32.0941 20.3927L43 16.741L41.8999 13.6343L30.4289 17.4752H3.03235V20.761H15.7324V25.1665L4.42458 28.6832C4.21083 32.8466 5.51476 36.9307 8.11509 39.966L0 47.858L2.38905 50.1814L10.5043 42.2893C14.07 45.1931 19.3426 46.5417 24.1029 45.5711V55H27.4816V44.5383C29.6173 43.6496 31.5459 42.2212 33.1696 40.5446L29.9976 27.5292L32.0941 20.3927ZM19.1109 27.5653V20.761H28.4721L26.5064 27.4517L29.1495 38.2974H25.986C20.2805 38.3652 15.8941 34.2955 14.4644 29.0104L19.1109 27.5653ZM20.8733 42.5919C14.0769 42.5922 8.47515 37.5206 7.85944 31.0648L11.2453 30.0117C13.0851 36.6411 18.8414 41.6815 25.9932 41.5832C24.3956 42.2446 22.6618 42.5918 20.8733 42.5919Z" fill="white"/>
</svg>
