<svg width="45" height="45" viewBox="0 0 45 45" fill="none" xmlns="http://www.w3.org/2000/svg">
<mask id="mask0_1_4855" style="mask-type:luminance" maskUnits="userSpaceOnUse" x="0" y="0" width="45" height="45">
<path d="M45 0H0V45H45V0Z" fill="white"/>
</mask>
<g mask="url(#mask0_1_4855)">
<mask id="mask1_1_4855" style="mask-type:luminance" maskUnits="userSpaceOnUse" x="0" y="0" width="45" height="45">
<path d="M0 3.8147e-06H45V45H0V3.8147e-06Z" fill="white"/>
</mask>
<g mask="url(#mask1_1_4855)">
<path d="M11.3038 45L11.3365 44.9996C11.6743 44.9912 11.9965 44.8533 12.236 44.6138L42.5459 14.3037C45.8181 11.0315 45.818 5.72669 42.5459 2.45452L42.5459 2.45446C39.274 -0.817879 33.9685 -0.817829 30.6965 2.45433V2.45427L0.386174 32.7642C0.138937 33.0114 8.44502e-06 33.3467 0 33.6964V43.6816C0 44.4098 0.59025 45 1.31836 45H11.3038ZM2.63672 34.2425L32.5609 4.31876V4.3187C34.8033 2.07626 38.4392 2.07632 40.6814 4.31876L40.6814 4.31883C42.9239 6.56128 42.9239 10.1967 40.6814 12.4392V12.4392L10.7578 42.3633H2.63672V34.2425Z" fill="white"/>
<path d="M38.1853 16.7999C38.7001 17.3148 39.5349 17.3147 40.0497 16.7999C40.5646 16.285 40.5645 15.4503 40.0497 14.9354L30.0645 4.95066C29.5496 4.43582 28.7149 4.4358 28.2001 4.95066C27.6852 5.46552 27.6853 6.30026 28.2001 6.8151L38.1853 16.7999Z" fill="white"/>
<path d="M33.1929 21.7926C33.7077 22.3074 34.5425 22.3074 35.0573 21.7925C35.5721 21.2777 35.5721 20.443 35.0573 19.9281L25.0721 9.94315C24.5572 9.42831 23.7225 9.4283 23.2076 9.94315C22.6928 10.458 22.6928 11.2927 23.2077 11.8076L33.1929 21.7926Z" fill="white"/>
<path d="M34.9129 33.7478C34.9129 36.533 37.1707 38.7914 39.9565 38.7913C40.2374 38.7913 40.5131 38.7683 40.7815 38.7241C39.2208 40.9261 36.6522 42.3633 33.7478 42.3633C28.9895 42.3633 25.1323 38.506 25.1323 33.7478C25.1323 31.047 27.3217 28.8573 30.0226 28.8574H30.0227C32.7232 28.8574 34.9129 31.0471 34.9129 33.7478ZM37.5496 33.7478C37.5496 29.6234 34.232 26.2734 30.1199 26.2213L30.0227 26.2207C25.8653 26.2205 22.4956 29.591 22.4956 33.7478C22.4956 39.9622 27.5333 45 33.7478 45C39.9401 45 44.9639 39.9981 44.9996 33.8142C44.9999 33.792 45.0001 33.7699 45.0001 33.7477L44.9996 33.7137C44.9816 33.0013 44.3985 32.4294 43.6817 32.4294C42.9536 32.4294 42.3634 33.0196 42.3634 33.7477C42.3634 35.077 41.2857 36.1546 39.9565 36.1546H39.9564C38.6271 36.1546 37.5496 35.0769 37.5496 33.7478Z" fill="white"/>
<path d="M11.5827 23.4323C12.0976 23.9471 12.9323 23.9471 13.4471 23.4322C13.962 22.9173 13.9619 22.0826 13.4471 21.5678L4.3186 12.4396L4.31853 12.4397C2.07596 10.1967 2.07619 6.56116 4.3186 4.31888V4.31882C6.56116 2.07626 10.1969 2.07623 12.4394 4.31882L21.5679 13.4471C22.0827 13.9619 22.9175 13.9619 23.4323 13.447C23.9471 12.9322 23.9471 12.0974 23.4323 11.5826L14.3039 2.45438C11.0316 -0.817968 5.72638 -0.817837 2.45416 2.45438V2.45445C-0.818099 5.72657 -0.817986 11.0315 2.4541 14.304L2.45422 14.3041L11.5827 23.4323Z" fill="white"/>
<path d="M10.3215 44.564C10.8363 45.0789 11.6711 45.0789 12.186 44.5641C12.7008 44.0492 12.7008 43.2145 12.186 42.6997L2.30066 32.8141C1.78582 32.2993 0.951078 32.2993 0.43622 32.8141C-0.0786364 33.3289 -0.0786916 34.1637 0.436155 34.6786L10.3215 44.564Z" fill="white"/>
<path d="M2.87212 44.6139C3.38698 45.1287 4.22171 45.1287 4.73655 44.6138C5.25139 44.099 5.25141 43.2642 4.73655 42.7494L2.25053 40.2635C1.73567 39.7487 0.900935 39.7487 0.386097 40.2636C-0.128727 40.7784 -0.128693 41.6132 0.386161 42.128L2.87212 44.6139Z" fill="white"/>
<path d="M8.48624 36.514C9.00109 37.0289 9.83588 37.0289 10.3507 36.514L30.0646 16.8C30.5795 16.2852 30.5795 15.4504 30.0646 14.9356C29.5498 14.4207 28.7151 14.4207 28.2002 14.9356L8.48624 34.6495C7.97138 35.1644 7.97138 35.9992 8.48624 36.514Z" fill="white"/>
</g>
</g>
</svg>
