<svg width="45" height="51" viewBox="0 0 45 51" fill="none" xmlns="http://www.w3.org/2000/svg">
<path d="M41.5393 25.306C40.3277 20.4531 37.0528 16.4176 32.4443 14.0358C32.4374 13.9463 32.4133 13.8551 32.4133 13.7691C32.4133 13.3784 32.5251 12.9706 32.6559 12.5008C33.0122 11.2118 33.4992 9.44961 31.5614 7.41033C30.3516 6.13858 28.4982 6.22635 26.3591 7.78033C27.5793 3.32662 30.1055 1.95162 30.2518 1.8759C30.7406 1.63497 30.9436 1.04986 30.7079 0.559402C30.4687 0.0655013 29.8784 -0.139287 29.3879 0.0999195C29.2158 0.182523 25.4797 2.13747 24.1908 8.50827C23.9688 8.47213 23.7502 8.43944 23.5248 8.43772L21.4683 8.44116C21.2412 8.44116 21.0226 8.47385 20.804 8.50999C19.5495 4.83241 17.3794 2.81551 17.2762 2.7243C16.8735 2.36119 16.2522 2.39561 15.884 2.79486C15.5191 3.19583 15.5501 3.82224 15.9511 4.1888C15.97 4.20428 17.2177 5.38138 18.2709 7.52908C16.2815 6.22463 14.5709 6.20914 13.4334 7.41033C11.4957 9.44789 11.9844 11.2118 12.3423 12.5008C12.4697 12.9706 12.5833 13.3802 12.5833 13.7691C12.5833 13.8551 12.5626 13.9463 12.5523 14.0307C7.94371 16.4158 4.66882 20.4496 3.45902 25.3043C1.38533 26.2663 0 28.6394 0 31.3705C0 34.5886 1.96528 37.2732 4.53803 37.7998C7.72687 45.6386 14.8514 50.8478 22.4991 50.8478C30.1468 50.8478 37.2714 45.6386 40.4602 37.7998C43.0347 37.2715 45 34.5886 45 31.3705C44.9983 28.6394 43.6112 26.2663 41.5393 25.306ZM29.6547 9.22245C30.565 10.181 30.4256 10.6887 30.1193 11.7969C29.961 12.3717 29.782 13.0222 29.782 13.7691C29.782 14.5177 29.961 15.1665 30.1193 15.7395C30.4274 16.8512 30.5668 17.3589 29.4516 18.4104C29.0128 18.4104 28.0181 17.8803 26.6603 16.5466V10.995C28.0095 9.66472 29.0145 9.14673 29.6547 9.22245ZM21.4752 11.0741L23.5214 11.0707C23.6952 11.0707 23.8604 11.1051 24.0256 11.1671V16.3728C23.8638 16.4348 23.6969 16.4675 23.5248 16.4675L21.4821 16.4709C21.3066 16.4692 21.1345 16.4365 20.9693 16.3728V11.1671C21.1345 11.1068 21.2997 11.0741 21.4752 11.0741ZM14.8807 11.8004C14.5709 10.6887 14.4332 10.1827 15.5501 9.13296C15.9924 9.13296 16.9836 9.66128 18.3397 10.995V16.5466C16.9836 17.8803 15.9924 18.4087 15.5501 18.4087L15.3436 18.3157C14.435 17.3572 14.5726 16.8495 14.8807 15.7412C15.0373 15.1665 15.2163 14.516 15.2163 13.7691C15.2163 13.0222 15.0373 12.3734 14.8807 11.8004ZM39.5705 35.2632C39.0112 35.2357 38.4812 35.5799 38.2833 36.1254C35.6365 43.3584 29.2933 48.2182 22.4974 48.2182C15.7016 48.2182 9.35829 43.3584 6.71326 36.1254C6.52224 35.6057 6.01801 35.2632 5.46388 35.2632C3.92883 35.2632 2.63127 33.4804 2.63127 31.3722C2.63127 29.5257 3.60014 27.9218 4.92868 27.5604C5.40881 27.4296 5.77364 27.0407 5.87518 26.5537C6.65131 22.7453 8.81965 19.5754 12.0429 17.3882C12.1341 18.2228 12.4989 19.1452 13.4351 20.1313C14.0013 20.7267 14.7344 21.0399 15.5501 21.0399C16.8029 21.0399 18.2485 20.2741 19.8593 18.7614C20.3704 18.9834 20.9159 19.1005 21.4786 19.1022L23.53 19.1005C24.0875 19.0987 24.6331 18.9852 25.1425 18.7632C26.7549 20.2741 28.2022 21.0399 29.4516 21.0399C30.2673 21.0399 30.997 20.725 31.5632 20.1313C32.4993 19.1469 32.8659 18.228 32.9554 17.3916C36.1769 19.5789 38.3487 22.7453 39.1248 26.5537C39.2246 27.0407 39.5912 27.4296 40.0713 27.5604C41.3999 27.9218 42.367 29.5257 42.367 31.3722C42.3636 33.4614 41.0884 35.2305 39.5705 35.2632Z" fill="white"/>
<path d="M27.4796 39.9629C26.9805 39.7341 26.4023 39.9543 26.1665 40.4396C26.1338 40.5085 25.3353 42.1278 22.4975 42.1278C19.6632 42.1278 18.863 40.5085 18.8286 40.4431C18.6048 39.9492 18.0146 39.722 17.5224 39.9561C17.0251 40.1815 16.8065 40.7666 17.0337 41.264C17.1662 41.5548 18.4465 44.1035 22.4975 44.1035C26.5486 44.1035 27.8289 41.5548 27.9614 41.264C28.1886 40.7701 27.97 40.1935 27.4796 39.9629Z" fill="white"/>
<path d="M15.2989 31.7629C16.5716 31.7629 17.6032 30.7312 17.6032 29.4586C17.6032 28.186 16.5716 27.1543 15.2989 27.1543C14.0263 27.1543 12.9946 28.186 12.9946 29.4586C12.9946 30.7312 14.0263 31.7629 15.2989 31.7629Z" fill="white"/>
<path d="M29.6979 31.7629C30.9705 31.7629 32.0021 30.7312 32.0021 29.4586C32.0021 28.186 30.9705 27.1543 29.6979 27.1543C28.4252 27.1543 27.3936 28.186 27.3936 29.4586C27.3936 30.7312 28.4252 31.7629 29.6979 31.7629Z" fill="white"/>
</svg>
