<svg width="36" height="35" viewBox="0 0 36 35" fill="none" xmlns="http://www.w3.org/2000/svg">
<circle cx="17.7227" cy="16.9231" r="16" fill="#FF1C3A"/>
<path d="M4.19914 29.5471C3.71959 29.0339 3.32443 28.5021 2.87672 27.804C2.87646 27.8037 2.8762 27.8033 2.87594 27.8029C2.81221 27.7031 2.74762 27.5996 2.68181 27.4921C2.15965 26.6242 1.49954 25.4776 0.804922 23.6367C0.0453505 21.5909 -0.0442097 19.8369 0.0145728 18.8028C0.0266528 18.6081 0.020978 18.4117 0.00753355 17.9103C0.00187107 17.6601 -0.00415758 17.3453 0.00454504 16.9231C0.00732567 16.7926 0.0116675 16.6525 0.0183607 16.502C0.0335003 16.1642 0.0600433 15.769 0.11168 15.311C0.262904 13.7931 0.765814 11.4233 1.71845 9.42418C2.27988 8.20732 2.96501 7.1286 3.54727 6.36017C4.3986 5.23496 5.36137 4.25806 6.51777 3.34423C7.57878 2.51128 8.80671 1.72664 10.3274 1.03619C11.496 0.508143 12.7272 0.227502 13.9714 0.0962449C14.1301 0.0794908 14.29 0.0649689 14.4485 0.0530501C15.5091 -0.0266664 16.5852 -0.0112095 17.7227 0.0633991C17.7645 0.0661501 17.8064 0.0689873 17.8483 0.0719098C19.9549 0.232372 21.6164 0.509086 23.3999 1.07009C24.0957 1.29454 24.8047 1.57134 25.5434 1.94077C26.7126 2.51616 28.2938 3.57007 29.6222 4.90951C29.7358 5.02281 29.848 5.13777 29.9582 5.25411C29.9588 5.25469 29.9594 5.25528 29.9599 5.25587C31.1519 6.50492 32.0894 7.92996 32.6762 9.02276C33.5964 10.7702 33.8112 11.4955 34.0446 12.0741C34.1262 12.2939 34.1987 12.5006 34.2732 12.7491C34.5461 13.6441 34.7852 15.0475 34.8079 16.4779C34.808 16.4834 34.8082 16.4888 34.8083 16.4943C34.813 16.7322 34.671 16.9249 34.4983 16.9231C34.3254 16.9213 34.1869 16.7338 34.1824 16.5058C34.169 15.7777 34.1047 15.063 34.006 14.4345C33.8542 14.4238 33.7177 14.2729 33.6834 14.0736C33.5875 13.5847 33.2406 12.021 32.0327 9.94151C32.0804 10.1007 32.1142 10.2352 32.141 10.3544C32.1725 10.4942 32.1924 10.6026 32.2089 10.6958C32.2431 10.8901 32.2639 11.0178 32.3257 11.2355C32.4932 11.7297 32.754 12.5052 32.9434 13.3446C32.9918 13.5568 32.8889 13.7579 32.7196 13.7914C32.55 13.8249 32.3797 13.6861 32.3334 13.4837C32.3325 13.4798 32.3315 13.4758 32.3306 13.4718C32.1504 12.6739 31.8927 11.906 31.7239 11.4104C31.6814 11.2843 31.6452 11.1755 31.6186 11.0934C31.5974 11.0278 31.5705 10.9454 31.5607 10.8976C31.5594 10.8912 31.557 10.879 31.555 10.8641C31.555 10.8638 31.555 10.8636 31.555 10.8633C31.5539 10.855 31.5479 10.8125 31.5532 10.7618C31.5542 10.7516 31.5568 10.7292 31.5644 10.7011C31.5633 10.6952 31.5622 10.6893 31.5611 10.6834C31.5457 10.6013 31.5293 10.5176 31.5087 10.428C31.423 10.0803 31.2844 9.52368 30.7331 8.47511C30.2238 7.52055 29.1362 5.97323 27.306 4.55285C27.4214 4.65871 27.5354 4.76604 27.6479 4.87444C27.9314 5.14743 28.2065 5.42926 28.4712 5.71976C28.5726 5.83101 28.671 5.94202 28.7697 6.05622C28.9286 6.2401 29.0837 6.42779 29.2343 6.61836C29.336 6.74714 29.4359 6.87757 29.5335 7.00934C29.5338 7.00962 29.534 7.00991 29.5342 7.01019C29.6697 7.19315 29.8011 7.37907 29.9291 7.56947C29.9736 7.63629 30.0172 7.70261 30.0599 7.76855C30.2298 8.03102 30.3904 8.29392 30.5503 8.60889C30.5683 8.64814 30.5866 8.69155 30.5996 8.72434C30.6136 8.75952 30.6266 8.79363 30.6384 8.82616C30.6488 8.85487 30.6582 8.88248 30.6674 8.90886C30.6686 8.91239 30.6698 8.91592 30.6711 8.91945C30.6813 8.94898 30.6911 8.97711 30.7006 9.00412C30.7101 9.03107 30.7191 9.05704 30.7284 9.08223C30.7286 9.08244 30.7287 9.08265 30.7288 9.08285C30.7387 9.10914 30.7462 9.12908 30.7574 9.15644C30.7714 9.1908 30.7838 9.2201 30.7995 9.25517C30.8147 9.2891 30.8309 9.32423 30.8476 9.35951C30.8643 9.39478 30.8815 9.43055 30.8992 9.46677C30.9168 9.50301 30.9347 9.53981 30.9529 9.57684C30.9711 9.61383 30.9897 9.65126 31.0081 9.68898C31.0266 9.72676 31.0451 9.76477 31.0635 9.80312C31.1061 9.89139 31.1188 9.99085 31.0976 10.0787C31.0765 10.1665 31.0239 10.2353 30.9517 10.2711C30.8795 10.307 30.7932 10.3075 30.7109 10.2742C30.6286 10.2409 30.5571 10.1765 30.5102 10.0951C30.4975 10.073 30.4845 10.0508 30.4716 10.0285C30.4639 10.0153 30.4562 10.0018 30.4484 9.98849C30.4275 9.95266 30.4061 9.91662 30.3849 9.88026C30.3636 9.84393 30.3423 9.80722 30.3207 9.7701C30.2991 9.73287 30.2772 9.69512 30.2554 9.65664C30.2337 9.61826 30.2118 9.57885 30.19 9.53854C30.1686 9.49923 30.145 9.45398 30.1246 9.41304C30.1096 9.38314 30.0919 9.34563 30.0774 9.31427C30.0622 9.28153 30.0476 9.24905 30.0337 9.21759C30.0198 9.18605 30.0067 9.15535 29.9939 9.12609C29.9926 9.12298 29.9912 9.11986 29.9898 9.11675C29.9785 9.09089 29.9676 9.06593 29.957 9.04249C29.9452 9.01629 29.9335 8.99174 29.9221 8.96863C29.9096 8.94314 29.9014 8.92807 29.8911 8.90968C29.7468 8.67217 29.5474 8.39124 29.3478 8.13146C29.3228 8.09876 29.2978 8.0663 29.2728 8.03433C29.1402 7.86464 29.004 7.69877 28.8641 7.53579C28.7625 7.4174 28.6588 7.30056 28.5534 7.18517C28.3982 7.01536 28.2388 6.84843 28.076 6.68533C27.9749 6.58399 27.8744 6.48583 27.7709 6.38742C27.5007 6.13047 27.221 5.88213 26.9333 5.64212C26.6462 5.40255 26.3496 5.17021 26.0465 4.94561C25.7446 4.7217 25.4243 4.49703 25.111 4.28443C24.8809 4.12765 24.646 3.9618 24.4255 3.81095C24.3071 3.72979 24.1895 3.65111 24.0731 3.57511C24.0727 3.57481 24.0723 3.57452 24.072 3.57422C23.9698 3.50753 23.8678 3.44277 23.7653 3.3802C23.5452 3.2458 23.3245 3.12223 23.0979 3.00812C22.8713 2.894 22.6422 2.79061 22.4057 2.69649C22.1705 2.60295 21.9294 2.51878 21.6856 2.44516C21.44 2.37103 21.1988 2.30875 20.9405 2.25251C20.6009 2.17908 20.2622 2.12294 19.9112 2.0783C19.5646 2.03447 19.2104 2.00384 18.858 1.98609C18.7344 1.97985 18.61 1.97487 18.4855 1.97168C18.485 1.97166 18.4845 1.97163 18.484 1.97161C18.2557 1.96584 18.0257 1.96519 17.7944 1.96956C17.7705 1.97001 17.7466 1.97052 17.7227 1.97108C17.3883 1.97891 17.0605 1.99695 16.7265 2.02495C16.3707 2.05483 16.0144 2.09606 15.658 2.1473C15.3023 2.19821 14.9367 2.26111 14.5714 2.32927C14.2446 2.39048 13.9182 2.46023 13.5995 2.53937C13.5155 2.56022 13.4318 2.58179 13.3483 2.60406C12.9508 2.71047 12.5719 2.83171 12.2043 2.97498C11.8381 3.11742 11.4795 3.28312 11.1299 3.46994C10.7807 3.65648 10.4384 3.86476 10.1055 4.09134C9.77098 4.31904 9.45304 4.55984 9.14096 4.81952C8.83177 5.07709 8.53336 5.34963 8.24556 5.63742C8.08538 5.79739 7.91764 5.96901 7.76207 6.13349C7.60494 6.29951 7.45182 6.46662 7.30405 6.63417C7.24409 6.70217 7.18491 6.77022 7.12687 6.83837C7.04225 6.93772 6.95965 7.03723 6.88005 7.13638C6.74573 7.30371 6.61936 7.47052 6.50219 7.6365C6.38514 7.80229 6.27753 7.9673 6.18053 8.13113C6.08028 8.30091 6.00427 8.4444 5.92104 8.62053C5.70599 9.04018 5.57107 9.29377 5.4253 9.57888C5.39684 9.63501 5.36828 9.69264 5.33901 9.7529C5.16869 10.0963 5.0079 10.4414 4.85868 10.7864C4.70839 11.1338 4.56998 11.48 4.44029 11.8337C4.31175 12.1843 4.19252 12.5407 4.08478 12.8984C3.97701 13.2563 3.88024 13.6158 3.79353 13.9812C3.70719 14.3442 3.6298 14.7212 3.56658 15.0826C3.5298 15.2923 3.49324 15.5168 3.46289 15.7246C3.44091 15.875 3.42095 16.0242 3.40353 16.1713C3.39644 16.2311 3.38977 16.2901 3.38355 16.349C3.36291 16.5445 3.3473 16.7363 3.33795 16.9231C3.3376 16.9302 3.33725 16.9373 3.33692 16.9444C3.32769 17.1378 3.32506 17.3244 3.32984 17.506C3.33457 17.6869 3.34694 17.8673 3.36672 18.0444C3.38764 18.2285 3.41062 18.379 3.44877 18.573C3.47383 18.6989 3.50029 18.8213 3.52819 18.9427C3.56987 19.1235 3.61558 19.3047 3.66525 19.4838C3.71492 19.6629 3.76777 19.8377 3.82515 20.0132C3.84357 20.0694 3.86338 20.1286 3.8827 20.1846C3.94237 20.3575 4.00527 20.5265 4.07249 20.6943C4.13957 20.8615 4.20982 21.0242 4.28432 21.185C4.35917 21.3467 4.43677 21.5031 4.51998 21.6597C4.66167 21.9265 4.7859 22.1835 4.89639 22.4072C5.00816 22.6342 5.11338 22.8442 5.22072 23.0469C5.24083 23.0849 5.26111 23.1228 5.28156 23.1605C5.36953 23.3232 5.45872 23.4809 5.55087 23.6346C5.66441 23.8239 5.78136 24.0056 5.90443 24.1844C6.02646 24.3617 6.15507 24.5364 6.28755 24.704C6.42145 24.8732 6.55434 25.0306 6.70314 25.195C6.85039 25.3577 7.00771 25.5157 7.18404 25.6837C7.35892 25.8501 7.5458 26.0197 7.73655 26.1883C7.92717 26.3566 8.12222 26.5243 8.31702 26.6882C8.51225 26.8524 8.70946 27.0143 8.90564 27.1712C9.10296 27.329 9.30064 27.4829 9.49977 27.6329C9.69855 27.7827 9.90584 27.9335 10.1027 28.0719C10.4208 28.2957 10.7465 28.5068 11.0808 28.7045C11.4134 28.9012 11.7556 29.0852 12.1035 29.2538C12.4517 29.4226 12.8067 29.5767 13.1681 29.7157C13.5293 29.8547 13.8964 29.9784 14.2692 30.0863C14.3519 30.1103 14.4338 30.1331 14.5166 30.1554C14.808 30.2339 15.1025 30.3026 15.398 30.3611C15.4 30.3615 15.402 30.362 15.404 30.3624C15.7853 30.4376 16.1627 30.4952 16.5456 30.536C16.6862 30.5509 16.8221 30.5631 16.9608 30.573C17.0995 30.5829 17.2342 30.5901 17.3718 30.5949C17.4892 30.599 17.6064 30.6012 17.7227 30.6014C17.7427 30.6014 17.7627 30.6014 17.7826 30.6013C17.9196 30.6007 18.0526 30.5974 18.1862 30.591C18.3088 30.5851 18.4292 30.5765 18.5627 30.5651C18.5749 30.5641 18.587 30.563 18.5991 30.562C18.7446 30.5492 18.9091 30.5338 19.0616 30.5207C19.4683 30.486 19.8605 30.4326 20.2576 30.3581C20.6539 30.2836 21.0452 30.1895 21.4358 30.0756C21.5881 30.0311 21.7389 29.9839 21.8907 29.9337C22.1265 29.8555 22.3586 29.7715 22.5916 29.6804C22.9734 29.5311 23.35 29.3658 23.7221 29.1856C24.0931 29.0059 24.46 28.8112 24.8181 28.6046C25.1765 28.3977 25.5306 28.1759 25.8727 27.9441C26.2541 27.6857 26.6225 27.411 26.9794 27.1171C27.3358 26.8237 27.6792 26.5123 28.0062 26.1855C28.3343 25.8576 28.6466 25.5138 28.9423 25.1545C29.2381 24.7951 29.517 24.4205 29.7776 24.0319C29.9335 23.7995 30.0832 23.5617 30.2256 23.3198C30.2802 23.1812 30.3303 23.0468 30.3763 22.918C30.7114 21.9623 30.8829 21.2565 31.0734 20.329C31.0882 20.2396 31.0952 20.1656 31.1029 20.0756C31.1044 20.0584 31.1061 20.0402 31.1076 20.0216C31.1174 19.9042 31.1295 19.7684 31.1545 19.5844C31.2039 19.2155 31.3057 18.6616 31.5052 17.9326C31.5554 17.7483 31.7271 17.6348 31.8936 17.685C32.0103 17.7204 32.0926 17.8295 32.1128 17.9587C32.1495 17.7248 32.1813 17.4924 32.2075 17.2581C32.218 17.1646 32.2578 17.0768 32.3199 17.0139C32.3821 16.9511 32.4613 16.9182 32.5418 16.9237C32.6222 16.9292 32.6978 16.9732 32.7522 17.047C32.8065 17.1206 32.8348 17.2177 32.831 17.3157C32.8208 17.5754 32.804 17.8342 32.7816 18.0929C32.7593 18.3508 32.7315 18.6076 32.6978 18.8645C32.6641 19.1204 32.6247 19.3763 32.5792 19.6318C32.534 19.8855 32.4824 20.1398 32.4247 20.3927C32.3669 20.6464 32.304 20.8956 32.2338 21.1462C32.1919 21.2963 32.1471 21.4471 32.1007 21.5956C32.0834 21.6508 32.0665 21.7047 32.0491 21.7583C32.0349 21.8022 32.0203 21.8462 32.0051 21.8914C31.8462 22.3672 31.6619 22.8404 31.4564 23.2996C31.2501 23.7608 31.0208 24.2119 30.7698 24.6509C30.5186 25.0903 30.2458 25.5173 29.9522 25.9303C29.6586 26.3432 29.3447 26.7418 29.011 27.1251C28.6785 27.5071 28.3256 27.8745 27.9562 28.2236C27.6705 28.4936 27.3771 28.7512 27.074 28.9983C26.9622 29.1054 26.8494 29.2093 26.7362 29.3099C26.4068 29.603 26.0705 29.8942 25.7248 30.1684C26.3761 29.7403 26.8565 29.3381 27.2935 28.9382C27.352 28.8845 27.4096 28.8306 27.4667 28.7767C28.0476 28.223 28.579 27.6661 29.2653 26.8937C31.1921 24.6589 31.7893 22.9925 32.1998 22.0197C32.5853 21.0225 32.7306 20.5836 32.9423 20.1849C33.2447 19.6243 33.4986 18.4361 33.5252 17.8295C33.539 17.6101 33.6849 17.4385 33.8577 17.444C34.0303 17.4502 34.1643 17.6392 34.1499 17.8688C34.1216 18.5336 33.8428 19.8731 33.4651 20.5632C33.2975 20.8699 33.1727 21.2384 32.7776 22.2605C32.3552 23.2568 31.7426 24.9781 29.7338 27.3088C29.0451 28.0837 28.5139 28.6423 27.9172 29.2132C27.8584 29.269 27.7991 29.3248 27.7385 29.3806C27.7381 29.3809 27.7377 29.3812 27.7373 29.3815C27.178 29.8936 26.5365 30.4296 25.5704 31.001C23.371 32.4077 19.8816 33.1491 19.0504 33.2122C18.8878 33.2374 18.7298 33.2615 18.5621 33.2842C18.3196 33.3171 18.0559 33.3484 17.7227 33.3709C17.1808 33.4042 16.4637 33.4283 15.3717 33.3041C14.9869 33.259 14.5394 33.187 14.054 33.0798C13.3113 32.9988 12.5876 32.8601 11.9756 32.6856C11.4456 32.5348 10.9499 32.4045 10.4671 32.2653C10.3285 32.2254 10.1879 32.1836 10.0484 32.1403C9.71197 32.0357 9.37683 31.9195 9.05876 31.7859C8.80557 31.6797 8.53859 31.5663 8.25934 31.4385C7.24809 30.9726 6.02754 30.3087 4.81146 29.0223C3.52999 27.6569 2.67813 26.2774 2.07455 25.0426C2.5063 25.958 2.89569 26.6411 3.23861 27.2006C3.30349 27.306 3.36668 27.4065 3.42841 27.5026C3.8665 28.1811 4.22235 28.6547 4.6526 29.116C6.75993 31.2752 7.84941 31.757 8.99412 32.2785C9.30302 32.408 9.64969 32.5327 10.027 32.6532C10.78 32.8938 11.649 33.1121 12.5715 33.322C13.4303 33.5182 14.4094 33.6426 15.4385 33.6701C15.4389 33.6702 15.4393 33.6702 15.4397 33.6703C15.6403 33.6757 15.8445 33.6777 16.049 33.676C16.6 33.6714 17.1607 33.6405 17.7227 33.5857C18.429 33.5169 19.1265 33.4106 19.8089 33.2771C19.9397 33.2515 20.095 33.2178 20.273 33.1756C21.3032 32.9318 23.0673 32.4097 25.102 31.4772C25.5491 31.2725 26.0172 31.0603 26.5395 30.7868C26.6985 30.7033 26.8621 30.6144 27.0315 30.5173C27.7593 30.0972 28.627 29.5292 29.622 28.5807C30.4419 27.7987 31.3363 26.7281 32.0892 25.4994C32.4611 24.8954 32.8008 24.2554 33.0958 23.6061C33.9848 21.6427 34.4606 19.6851 34.6088 17.7033C34.6088 17.7029 34.6088 17.7025 34.6088 17.7021C34.626 17.4697 34.7746 17.2884 34.9472 17.2999C35.1195 17.3114 35.2504 17.5189 35.2324 17.7609C35.0773 19.8165 34.5827 21.8412 33.6628 23.8711C33.3612 24.5344 33.012 25.1935 32.628 25.8179C31.8443 27.0995 30.9036 28.2254 30.0443 29.0431C28.9937 30.0429 28.0759 30.6408 27.3093 31.081C27.1241 31.1866 26.948 31.2817 26.7794 31.3695C26.2428 31.648 25.786 31.8528 25.3454 32.0541C23.2981 32.9886 21.5377 33.5174 20.466 33.7747C20.2749 33.8205 20.1091 33.8568 19.9654 33.8853C19.2341 34.0299 18.4849 34.1447 17.7227 34.217C17.1852 34.2681 16.6488 34.2981 16.1155 34.3044C15.9078 34.307 15.6967 34.3055 15.4896 34.3007C15.4891 34.3008 15.4887 34.3008 15.4883 34.3009C14.4222 34.2768 13.3896 34.1503 12.4819 33.9454C11.5602 33.7374 10.7488 33.5387 9.99389 33.3068C9.58915 33.1821 9.20209 33.0472 8.82765 32.8923C7.56675 32.3278 6.38616 31.789 4.19914 29.5471ZM32.0526 18.317C31.9283 18.7897 31.852 19.1682 31.8061 19.456C31.867 19.2162 31.9225 18.9757 31.9724 18.7332C32.0008 18.5953 32.0277 18.4553 32.0526 18.317ZM14.1282 32.4553C14.2146 32.4648 14.3018 32.4736 14.3893 32.4816C14.1524 32.4362 13.918 32.3852 13.6844 32.3289C13.3964 32.2594 13.1129 32.1823 12.8296 32.0965C13.2754 32.2424 13.716 32.3625 14.1282 32.4553ZM5.26532 28.5912C6.37188 29.7604 7.44919 30.3581 8.41515 30.8133C8.69473 30.9438 8.96886 31.0627 9.23851 31.1772C9.35034 31.2248 9.46338 31.2694 9.57815 31.3123C8.97041 30.9567 8.43675 30.5883 8.01452 30.2697C6.75916 29.3096 6.17391 28.6152 5.67275 28.0141C5.52916 27.8382 5.39485 27.6666 5.26014 27.4899C5.12532 27.3635 4.9881 27.2292 4.85385 27.0889C4.6656 26.8928 4.4695 26.6731 4.29042 26.4574C4.1104 26.2409 3.93505 26.0144 3.77066 25.7858C3.60474 25.5552 3.44848 25.3212 3.30007 25.083C3.16024 24.8587 3.02812 24.6315 2.905 24.4082C2.89796 24.3954 2.89093 24.3826 2.88392 24.3698C2.75412 24.133 2.63444 23.9003 2.52465 23.685C2.41275 23.4657 2.32021 23.2831 2.23111 23.1232C2.12 22.9237 2.0112 22.7137 1.91021 22.5049C1.8089 22.2955 1.71344 22.0827 1.62421 21.8685C1.53496 21.6544 1.45189 21.4393 1.37397 21.2206C1.34872 21.1497 1.32314 21.0762 1.29938 21.0059C1.28843 20.9735 1.27751 20.9412 1.26682 20.9088C1.37065 21.3481 1.49514 21.8007 1.64341 22.2637C1.85703 22.93 2.11479 23.6368 2.45842 24.3898C3.04698 25.6706 3.88338 27.1145 5.26532 28.5912ZM0.972238 14.1021C0.941238 14.298 0.901615 14.5818 0.864924 14.9528C0.856293 15.0403 0.847983 15.1336 0.840053 15.2301C0.840428 15.2278 0.840661 15.2255 0.841037 15.2233C0.880893 14.9848 0.921381 14.7653 0.967507 14.5307C1.04999 14.1117 1.14275 13.7081 1.2484 13.3033C1.35441 12.8975 1.47223 12.4967 1.60207 12.1003C1.73212 11.7031 1.87443 11.3093 2.02723 10.9231C2.18132 10.5335 2.34498 10.1542 2.52032 9.7765C2.5761 9.65639 2.63338 9.5358 2.69163 9.41598C2.54422 9.67548 2.40166 9.94871 2.25906 10.2439C2.14524 10.4796 2.03241 10.7268 1.9185 10.9913C1.87487 11.0926 1.82173 11.2143 1.76182 11.3577C1.52571 11.9262 1.17405 12.8393 0.972238 14.1021ZM4.32685 6.50338C4.38361 6.42376 4.44103 6.34532 4.49891 6.26863C4.66366 6.0504 4.83257 5.84343 5.00319 5.64529C5.12305 5.50613 5.24441 5.3709 5.36591 5.23942C5.41719 5.18394 5.46872 5.12879 5.52015 5.07453C5.6063 4.98364 5.6926 4.89414 5.7792 4.80617C5.14979 5.40084 4.57899 6.0318 4.04623 6.73762C4.03922 6.74693 4.03232 6.75639 4.02526 6.76579C4.12719 6.67489 4.22783 6.58743 4.32685 6.50338Z" fill="#FF1C3A"/>
</svg>
