<svg width="541" height="544" viewBox="0 0 541 544" fill="none" xmlns="http://www.w3.org/2000/svg">
<path d="M376.175 544C367.007 544 357.776 543.103 348.571 541.27C310.626 533.723 277.791 511.34 256.116 478.233C249.342 467.838 238.727 462.398 228.23 463.854C191.243 468.919 155.246 452.268 134.346 420.351C127.204 409.443 122.261 397.428 119.651 384.642C113.903 356.457 95.7808 331.788 68.6287 315.176C46.1088 301.398 27.7044 281.208 15.3987 256.801C-15.2804 195.929 1.12317 118.073 53.5618 75.6974C77.0815 56.6944 105.12 46.0196 134.653 44.8381C152.601 44.1185 169.807 37.4141 184.405 25.4542C186.542 23.7057 188.75 22.0299 191.043 20.4172C223.998 -2.68081 265.4 -6.41731 301.823 10.4158C322.193 19.8264 340.278 24.0165 357.115 23.1919C418.767 20.1652 476.197 49.8976 510.717 102.627C541.799 150.1 549.375 208.53 531.493 262.935C518.88 301.332 514.761 339.128 519.252 375.263C526.248 431.604 502.406 486.373 457.022 518.189C432.792 535.18 404.812 544 376.175 544ZM231.601 454.239C243.942 454.239 255.85 461.062 263.489 472.776C283.937 504.006 314.715 524.989 350.284 532.058C385.859 539.166 421.959 531.454 451.94 510.426C494.47 480.607 516.821 429.273 510.26 376.467C505.591 338.894 509.849 299.683 522.916 259.917C539.869 208.323 532.69 152.91 503.21 107.888C470.468 57.8871 415.985 29.6429 357.538 32.5646C339.227 33.4844 319.814 29.0115 298.122 18.9822C264.588 3.48603 226.456 6.92573 196.126 28.1869C194.024 29.6611 191.993 31.2095 190.029 32.8124C173.912 46.0141 154.884 53.4128 135.006 54.2108C107.383 55.3182 81.1468 65.3055 59.1356 83.092C10.0913 122.729 -5.25968 195.544 23.4334 252.462C34.9571 275.322 52.1805 294.22 73.2393 307.11C102.609 325.075 122.239 351.922 128.519 382.705C130.885 394.299 135.369 405.197 141.851 415.097C160.813 444.057 193.441 459.14 227.036 454.552C228.557 454.349 230.084 454.239 231.601 454.239Z" fill="#FFECE0"/>
</svg>
