<svg width="24" height="24" viewBox="0 0 24 24" fill="none" xmlns="http://www.w3.org/2000/svg">
<path d="M19.1781 2.9731C17.2609 1.05586 14.7118 0 12.0004 0C9.28906 0 6.7399 1.05586 4.82271 2.9731C2.90547 4.89038 1.84961 7.43945 1.84961 10.1508C1.84961 15.6357 7.03578 20.1978 9.82198 22.6487C10.2092 22.9893 10.5435 23.2835 10.8099 23.5323C11.1437 23.844 11.5721 24 12.0004 24C12.4288 24 12.8571 23.844 13.1909 23.5323C13.4572 23.2834 13.7916 22.9893 14.1788 22.6487C16.965 20.1978 22.1512 15.6357 22.1512 10.1508C22.1511 7.43945 21.0953 4.89038 19.1781 2.9731ZM13.2502 21.5932C12.8545 21.9412 12.5128 22.2419 12.2311 22.505C12.1017 22.6258 11.899 22.6258 11.7696 22.505C11.4879 22.2418 11.1462 21.9412 10.7505 21.5932C8.13111 19.289 3.25539 15 3.25539 10.1508C3.25539 5.32885 7.17832 1.40592 12.0003 1.40592C16.8223 1.40592 20.7452 5.32885 20.7452 10.1508C20.7452 15 15.8696 19.289 13.2502 21.5932Z" fill="#FE543D"/>
<path d="M11.9997 5.29395C9.53309 5.29395 7.52637 7.30062 7.52637 9.76724C7.52637 12.2339 9.53309 14.2405 11.9997 14.2405C14.4663 14.2405 16.473 12.2339 16.473 9.76724C16.473 7.30062 14.4663 5.29395 11.9997 5.29395ZM11.9997 12.8346C10.3083 12.8346 8.93224 11.4585 8.93224 9.76719C8.93224 8.07584 10.3083 6.69978 11.9997 6.69978C13.6911 6.69978 15.0671 8.07584 15.0671 9.76719C15.0671 11.4585 13.6911 12.8346 11.9997 12.8346Z" fill="#FE543D"/>
</svg>
